/* XPM */
static char *sh_log_xpm[] = {
/* width height num_colors chars_per_pixel */
"    54    48      256            2",
/* colors */
"`` c #ffffff",
"`. c #b5afcd",
"`# c #6c5f9c",
"`a c #301d74",
"`b c #29166f",
"`c c #3d2c7d",
"`d c #f8f8fa",
"`e c #b1657d",
"`f c #da251d",
"`g c #c23e47",
"`h c #5f5093",
"`i c #7a6ea5",
"`j c #d0ccdf",
"`k c #877cae",
"`l c #a8a0c4",
"`m c #ddd4e1",
"`n c #d5bfce",
"`o c #bcb6d2",
"`p c #b6586b",
"`q c #d44d4d",
"`r c #51428a",
"`s c #5f5193",
"`t c #a199c0",
"`u c #c1b6d0",
"`v c #d4251f",
"`w c #d4b8c7",
"`x c #aea7c9",
"`y c #ebe9f1",
"`z c #a6506b",
"`A c #d43937",
"`B c #443381",
"`C c #f9f8fa",
"`D c #c88898",
"`E c #f2f0f6",
"`F c #dac6d3",
"`G c #efe9ef",
"`H c #cd9dac",
"`I c #d24646",
"`J c #948bb7",
"`K c #58498f",
"`L c #cf676f",
"`M c #bb6c7f",
"`N c #d7332d",
"`O c #be7385",
"`P c #ede9f1",
"`Q c #bf8194",
"`R c #d7d3e4",
"`S c #e7e2ec",
"`T c #cdb7ca",
"`U c #c9c5db",
"`V c #d5c5d6",
"`W c #d9c6d4",
"`X c #dc332b",
"`Y c #ddb9c2",
"`Z c #7366a1",
"`0 c #df5c57",
"`1 c #c58192",
"`2 c #e4e2ed",
"`3 c #d78a91",
"`4 c #e14e48",
"`5 c #e35c56",
"`6 c #e04740",
"`7 c #b94b5a",
"`8 c #362578",
".` c #dbb9c3",
".. c #f6c8c6",
".# c #f1adaa",
".a c #d12b29",
".b c #f5f1f5",
".c c #e87772",
".d c #ed928e",
".e c #eae2eb",
".f c #dddae8",
".g c #f2cfd0",
".h c #eddfe5",
".i c #f3f0f6",
".j c #ece9f1",
".k c #d52c26",
".l c #d196a2",
".m c #ef9f9c",
".n c #db6969",
".o c #d83a34",
".p c #e1cdd7",
".q c #c68fa0",
".r c #d13f3f",
".s c #c39bb0",
".t c #e3d4de",
".u c #cf3939",
".v c #655898",
".w c #cd6068",
".x c #af809c",
".y c #c6b7cd",
".z c #bb2934",
".A c #b44a5d",
".B c #b187a2",
".C c #ccb1c3",
".D c #d15356",
".E c #f3f1f5",
".F c #db2c24",
".G c #cf4c50",
".H c #c57b8a",
".I c #ab4961",
".J c #c63e44",
".K c #cb3f42",
".L c #cab7cb",
".M c #b2809a",
".N c #c27484",
".O c #ad657e",
".P c #d9403b",
".Q c #ce909c",
".R c #bb7387",
".S c #8075aa",
".T c #dc4e49",
".U c #dec6d1",
".V c #ac354a",
".W c #cd4649",
".X c #d7c6d4",
".Y c #c3bdd6",
".Z c #b68099",
".0 c #d16e75",
".1 c #4b3b86",
".2 c #000000",
".3 c #000000",
".4 c #000000",
".5 c #000000",
".6 c #000000",
".7 c #000000",
".8 c #000000",
"#` c #000000",
"#. c #000000",
"## c #000000",
"#a c #000000",
"#b c #000000",
"#c c #000000",
"#d c #000000",
"#e c #000000",
"#f c #000000",
"#g c #000000",
"#h c #000000",
"#i c #000000",
"#j c #000000",
"#k c #000000",
"#l c #000000",
"#m c #000000",
"#n c #000000",
"#o c #000000",
"#p c #000000",
"#q c #000000",
"#r c #000000",
"#s c #000000",
"#t c #000000",
"#u c #000000",
"#v c #000000",
"#w c #000000",
"#x c #000000",
"#y c #000000",
"#z c #000000",
"#A c #000000",
"#B c #000000",
"#C c #000000",
"#D c #000000",
"#E c #000000",
"#F c #000000",
"#G c #000000",
"#H c #000000",
"#I c #000000",
"#J c #000000",
"#K c #000000",
"#L c #000000",
"#M c #000000",
"#N c #000000",
"#O c #cf3917",
"#P c #6f3402",
"#Q c #1800c9",
"#R c #00c96f",
"#S c #18f8b8",
"#T c #026000",
"#U c #146fff",
"#V c #0018f9",
"#W c #17af42",
"#X c #ffff10",
"#Y c #49ffff",
"#Z c #10008c",
"#0 c #18f8e8",
"#1 c #04d800",
"#2 c #5c0000",
"#3 c #0018f9",
"#4 c #18f964",
"#5 c #000800",
"#6 c #0e0000",
"#7 c #000000",
"#8 c #008c20",
"a` c #8b2d10",
"a. c #e802c6",
"a# c #0018f8",
"aa c #0004d8",
"ab c #f95c00",
"ac c #600018",
"ad c #6fff02",
"ae c #c68b65",
"af c #8b7202",
"ag c #0002c6",
"ah c #000000",
"ai c #000000",
"aj c #f96c00",
"ak c #900018",
"al c #0018f9",
"am c #010000",
"an c #825100",
"ao c #140000",
"ap c #001000",
"aq c #000000",
"ar c #00b700",
"as c #000000",
"at c #000000",
"au c #ff0260",
"av c #64406f",
"aw c #0000c9",
"ax c #000000",
"ay c #000000",
"az c #391700",
"aA c #6c02cf",
"aB c #00c96f",
"aC c #c96f50",
"aD c #f94c00",
"aE c #400018",
"aF c #6fff0d",
"aG c #ff0d40",
"aH c #4a046f",
"aI c #6402cf",
"aJ c #00c96f",
"aK c #000000",
"aL c #6f5000",
"aM c #4c00c9",
"aN c #0018f9",
"aO c #cf4df1",
"aP c #3a9802",
"aQ c #0002e2",
"aR c #000000",
"aS c #000000",
"aT c #fb4c00",
"aU c #a8b892",
"aV c #0018f9",
"aW c #aee7c7",
"aX c #ffff71",
"aY c #40ffff",
"aZ c #6fff0d",
"a0 c #ff0d40",
"a1 c #77936f",
"a2 c #a002c4",
"a3 c #02c477",
"a4 c #be62b4",
"a5 c #a30403",
"a6 c #c003bd",
"a7 c #0018f9",
"a8 c #bcdd7c",
/* pixels */
"`````.`#`a`b`b`b`b`b`b`b`b`b`b`b`c`d`````e`f`f`f`f`f`f`f`f`f`f`f`f`f`g`d`````h`b`b`b`b`b`b`b`b`b`b`b`c`i`j``",
"```k`b`b`b`b`b`b`b`b`b`b`b`b`b`b`l`````m`f`f`f`f`f`f`f`f`f`f`f`f`f`f`n`````j`b`b`b`b`b`b`b`b`b`b`b`b`b`b`a`.",
"`o`b`b`b`b`b`b`b`b`b`b`b`b`b`b`c`d`````p`f`f`f`f`f`f`f`f`f`f`f`f`f`q```````r`b`b`b`b`b`b`b`b`b`b`b`b`b`b`b`b",
"`s`b`b`b`b`b`b`b`b`b`b`b`b`b`b`t`````u`v`f`f`f`f`f`f`f`f`f`f`f`f`f`w`````x`b`b`b`b`b`b`b`b`b`b`b`b`b`b`b`b`b",
"`b`b`b`b`b`b`b`b`b`b`b`b`b`b`a`y`````z`f`f`f`f`f`f`f`f`f`f`f`f`f`A`d`````B`b`b`b`b`b`b`b`b`b`b`b`b`b`b`b`b`b",
"`b`b`b`b`b`b`b`b`b`b`b`b`b`b`#`````C`f`f`f`f`f`f`f`f`f`f`f`f`f`f`D`````E`b`b`b`b`b`b`b`b`b`b`b`b`b`b`b`b`b`b",
"`b`b`b`b`b`b`b`b`b`b`b`b`b`b`t`````F`f`f`f`f`f`f`f`f`f`f`f`f`f`f`G`````o`b`b`b`b`b`b`b`b`b`b`b`b`b`b`b`b`b`b",
"`b`b`b`b`b`b`b`b`b`b`b`b`b`b`y`````H`f`f`f`f`f`f`f`f`f`f`f`f`f`I```````J`b`b`b`b`b`b`b`b`b`b`b`b`b`b`b`b`b`b",
"`b`b`b`b`b`b`b`b`b`b`b`b`b`K```````L`f`f`f`f`f`f`f`f`f`f`f`f`f`M```````h`b`b`b`b`b`b`b`b`b`b`b`b`b`b`b`b`b`b",
"`b`b`b`b`b`b`b`b`b`b`b`b`b`h```````N`f`f`f`f`f`f`f`f`f`f`f`f`f`O`````d`a`b`b`b`b`b`b`b`b`b`b`b`b`b`b`b`b`b`b",
"`b`b`b`b`b`b`b`b`b`b`b`b`b`i`````P`f`f`f`f`f`f`f`f`f`f`f`f`f`f`Q`````R`b`b`b`b`b`b`b`b`b`b`b`b`b`b`b`b`b`b`b",
"`b`b`b`b`b`b`b`b`b`b`b`b`b`t`````S`f`f`f`f`f`f`f`f`f`f`f`f`f`f`T`````U`b`b`b`b`b`b`b`b`b`b`b`b`b`b`b`b`b`b`b",
"`b`b`b`b`b`b`b`b`b`b`b`b`b`x`````S`f`f`f`f`f`f`f`f`f`f`f`f`f`f`V`````U`b`b`b`b`b`b`b`b`b`b`b`b`b`b`b`b`b`b`b",
"`b`b`b`b`b`b`b`b`b`b`b`b`b`x`````S`f`f`f`f`f`f`f`f`f`f`f`f`f`f`W`````U`b`b`b`b`b`b`b`b`b`b`b`b`b`b`b`b`b`b`b",
"`b`b`b`b`b`b`b`b`b`b`b`b`b`t```````X`f`f`f`f`f`f`f`f`f`f`f`f`f`Y`````U`b`b`b`b`b`b`b`b`b`b`b`b`b`b`b`b`b`b`b",
"`b`b`b`b`b`b`b`b`b`b`b`b`b`Z```````0`f`f`f`f`f`f`f`f`f`f`f`f`f`1`````2`b`b`b`b`b`b`b`b`b`b`b`b`b`b`b`b`b`b`b",
"`b`b`b`b`b`b`b`b`b`b`b`b`b`B```````3`4`5`5`5`6`f`f`f`f`f`f`f`f`7```````8`b`b`b`b`b`b`b`b`b`b`b`b`b`b`b`b`b`b",
"`b`b`b`b`b`b`b`b`b`b`b`b`b`b`2````.`..``````.#`f`f`f`f`f`f`f`f.a`d`````k`b`b`b`b`b`b`b`b`b`b`b`b`b`b`b`b`b`b",
"`b`b`b`b`b`b`b`b`b`b`b`b`b`b`.````.b..``````.#`f`f`f`f`f.c.d.d.d.e````.f`b`b`b`b`b`b`b`b`b`b`b`b`b`b`b`b`b`b",
"`b`b`b`b`b`b`b`b`b`b`b`b`b`b`#``````.g``````.#`f`f`f`f`f..```````````````8`b`b`b`b`b`b`b`b`b`b`b`b`b`b`b`b`b",
"`b`b`b`b`b`b`b`b`b`b`b`b`b`b`b`R````.h``````.#`f`f`f`f`f..````````.i`````#`b`b`b`b`b`b`b`b`b`b`b`b`b`b`b`b`b",
"`b`b`b`b`b`b`b`b`b`b`b`b`b`b`b`Z````.j.k`f`f`f`f`f`f`f`f..````````.``````R`b`b`b`b`b`b`b`b`b`b`b`b`b`b`b`b`b",
"`b`b`b`b`b`b`b`b`b`b`b`b`b`b`b`a`y````.l`f`f`f`f`f`f`f`f.m.........n```````#`b`b`b`b`b`b`b`b`b`b`b`b`b`b`b`b",
"`b`b`b`b`b`b`b`b`b`b`b`b`b`b`b`b`k``````.o`f`f`f`f`f`f`f`f`f`f`f`f`f.p`````R`b`b`b`b`b`b`b`b`b`b`b`b`b`b`b`b",
"`b`b`b`b`b`b`b`b`b`b`b`b`b`b`b`b`a`y````.q`f`f`f`f`f`f`f`f`f`f`f`f`f.r`d`````i`b`b`b`b`b`b`b`b`b`b`b`b`b`b`b",
"`b`b`b`b`b`b`b`b`b`b`b`b`b`b`b`b`b`#`````C`I`f`f`f`f`f`f`f`f`f`f`f`f`f.s`````E`B`b`b`b`b`b`b`b`b`b`b`b`b`b`b",
"`b`b`b`b`b`b`b`b`b`b`b`b`b`b`b`b`b`b`o````.t`f`f`f`f`f`f`f`f`f`f`f`f`f.u`d`````o`b`b`b`b`b`b`b`b`b`b`b`b`b`b",
"`b`b`b`b`b`b`b`b`b`b`b`b`b`b`b`b`b`b.v``````.w`f`f`f`f`f`f`f`f`f`f`f`f`f.x```````r`b`b`b`b`b`b`b`b`b`b`b`b`b",
"`b`b`b`b`b`b`b`b`b`b`b`b`b`b`b`b`b`b`b`R````.y`f`f`f`f`f`f`f`f`f`f`f`f`f.z`y`````o`b`b`b`b`b`b`b`b`b`b`b`b`b",
"`b`b`b`b`b`b`b`b`b`b`b`b`b`b`b`b`b`b`b`i``````.A`f`f`f`f`f`f`f`f`f`f`f`f`f.B```````r`b`b`b`b`b`b`b`b`b`b`b`b",
"`b`b`b`b`b`b`b`b`b`b`b`b`b`b`b`b`b`b`b`r``````.C`f`f`f`f`f`f`f`f`f`f`f`f`f.D```````t`b`b`b`b`b`b`b`b`b`b`b`b",
"`b`b`b`b`b`b`b`b`b`b`b`b`b`b`b`b`b`b`b`b`R````.E`f`f`f`f`f`f`f`f`f`f`f`f`f.F`P`````2`b`b`b`b`b`b`b`b`b`b`b`b",
"`b`b`b`b`b`b`b`b`b`b`b`b`b`b`b`b`b`b`b`b`i``````.G`f`f`f`f`f`f`f`f`f`f`f`f`f.B```````8`b`b`b`b`b`b`b`b`b`b`b",
"`b`b`b`b`b`b`b`b`b`b`b`b`b`b`b`b`b`b`b`b`B``````.H`f`f`f`f`f`f`f`f`f`f`f`f`f.I```````#`b`b`b`b`b`b`b`b`b`b`b",
"`b`b`b`b`b`b`b`b`b`b`b`b`b`b`b`b`b`b`b`b`b```````w`f`f`f`f`f`f`f`f`f`f`f`f`f.J```````t`b`b`b`b`b`b`b`b`b`b`b",
"`b`b`b`b`b`b`b`b`b`b`b`b`b`b`b`b`b`b`b`b`b```````V`f`f`f`f`f`f`f`f`f`f`f`f`f.K```````x`b`b`b`b`b`b`b`b`b`b`b",
"`b`b`b`b`b`b`b`b`b`b`b`b`b`b`b`b`b`b`b`b`b```````V`f`f`f`f`f`f`f`f`f`f`f`f`f.K```````x`b`b`b`b`b`b`b`b`b`b`b",
"`b`b`b`b`b`b`b`b`b`b`b`b`b`b`b`b`b`b`b`b`b```````V`f`f`f`f`f`f`f`f`f`f`f`f`f.K```````x`b`b`b`b`b`b`b`b`b`b`b",
"`b`b`b`b`b`b`b`b`b`b`b`b`b`b`b`b`b`b`b`b`b``````.L`f`f`f`f`f`f`f`f`f`f`f`f`f.K```````t`b`b`b`b`b`b`b`b`b`b`b",
"`b`b`b`b`b`b`b`b`b`b`b`b`b`b`b`b`b`b`b`b`a``````.M`f`f`f`f`f`f`f`f`f`f`f`f`f`g```````i`b`b`b`b`b`b`b`b`b`b`b",
"`b`b`b`b`b`b`b`b`b`b`b`b`b`b`b`b`b`b`b`b`h``````.N`f`f`f`f`f`f`f`f`f`f`f`f`f.O```````B`b`b`b`b`b`b`b`b`b`b`b",
"`b`b`b`b`b`b`b`b`b`b`b`b`b`b`b`b`b`b`b`b`.``````.G`f`f`f`f`f`f`f`f`f`f`f`f`f`T`````2`b`b`b`b`b`b`b`b`b`b`b`b",
"`b`b`b`b`b`b`b`b`b`b`b`b`b`b`b`b`b`b`b`8`d`````V`f`f`f`f`f`f`f`f`f`f`f`f`f.P```````o`b`b`b`b`b`b`b`b`b`b`b`b",
"`b`b`b`b`b`b`b`b`b`b`b`b`b`b`b`b`b`b`b`#``````.Q`f`f`f`f`f`f`f`f`f`f`f`f`f.R``````.S`b`b`b`b`b`b`b`b`b`b`b`b",
"`a`b`b`b`b`b`b`b`b`b`b`b`b`b`b`b`b`b`b`x``````.T`f`f`f`f`f`f`f`f`f`f`f`f`f.y`````y`a`b`b`b`b`b`b`b`b`b`b`b`b",
"`Z`b`b`b`b`b`b`b`b`b`b`b`b`b`b`b`b`b`a`d````.U`f`f`f`f`f`f`f`f`f`f`f`f`f.V`d`````k`b`b`b`b`b`b`b`b`b`b`b`b`b",
"`R`a`b`b`b`b`b`b`b`b`b`b`b`b`b`b`b`b`k`````d.W`f`f`f`f`f`f`f`f`f`f`f`f`f.X`````y`a`b`b`b`b`b`b`b`b`b`b`b`b`c",
"``.Y`8`b`b`b`b`b`b`b`b`b`b`b`b`b`b`8`y````.Z`f`f`f`f`f`f`f`f`f`f`f`f`f.0``````.S`b`b`b`b`b`b`b`b`b`b`b`b.1`2"
};
