/* XPM */
static char * actNotStarted_xpm[] = {
"16 16 17 1",
" 	c None",
".	c #000000",
"+	c #FFFFFF",
"@	c #000002",
"#	c #34344F",
"$	c #414162",
"%	c #6C6C7D",
"&	c #6B6B7B",
"*	c #6C7CB7",
"=	c #515F8C",
"-	c #7797D2",
";	c #CCCCCC",
">	c #B2B2B2",
",	c #969696",
"'	c #5F5F5F",
")	c #FFFFFF",
"!	c #000000",
"                ",
"                ",
"                ",
"                ",
"          %$,   ",
"         %$*$,  ",
"         $$-=&  ",
"         ,@'$,  ",
"      >$$@$$>   ",
"    >$$@@$      ",
"   $$$@&,$'     ",
"  >$$@', ,$'    ",
"  >&###@&,,$'   ",
"  >>@'  @$ ,$,  ",
"%,,,@' @&>  ,$,,",
"%$$$@'@@@$,  ,>>"};
