/* XPM */
static char * actRun_xpm[] = {
"16 16 257 2",
"  	c None",
". 	c #000000",
"+ 	c #800000",
"@ 	c #008000",
"# 	c #808000",
"$ 	c #000080",
"% 	c #800080",
"& 	c #008080",
"* 	c #C0C0C0",
"= 	c #C0DCC0",
"- 	c #A6CAF0",
"; 	c #163C73",
"> 	c #1A4177",
", 	c #1D4378",
"' 	c #1F457B",
") 	c #244A7F",
"! 	c #2B5084",
"~ 	c #325587",
"{ 	c #466694",
"] 	c #5778A9",
"^ 	c #728BAF",
"/ 	c #6D8DC1",
"( 	c #8097B8",
"_ 	c #849AB8",
": 	c #88A1C7",
"< 	c #A3B9DA",
"[ 	c #B0C4E1",
"} 	c #B6C7E1",
"| 	c #FFFFFF",
"1 	c #000000",
"2 	c #000000",
"3 	c #000000",
"4 	c #000000",
"5 	c #000000",
"6 	c #000000",
"7 	c #000000",
"8 	c #000000",
"9 	c #000000",
"0 	c #000000",
"a 	c #000000",
"b 	c #000000",
"c 	c #000000",
"d 	c #000000",
"e 	c #000000",
"f 	c #000000",
"g 	c #000000",
"h 	c #000000",
"i 	c #000000",
"j 	c #000000",
"k 	c #000000",
"l 	c #000000",
"m 	c #000000",
"n 	c #000000",
"o 	c #000000",
"p 	c #000000",
"q 	c #000000",
"r 	c #000000",
"s 	c #000000",
"t 	c #000000",
"u 	c #000000",
"v 	c #000000",
"w 	c #000000",
"x 	c #000000",
"y 	c #000000",
"z 	c #000000",
"A 	c #000000",
"B 	c #000000",
"C 	c #000000",
"D 	c #000000",
"E 	c #000000",
"F 	c #000000",
"G 	c #000000",
"H 	c #000000",
"I 	c #000000",
"J 	c #000000",
"K 	c #000000",
"L 	c #000000",
"M 	c #000000",
"N 	c #000000",
"O 	c #000000",
"P 	c #000000",
"Q 	c #000000",
"R 	c #000000",
"S 	c #000000",
"T 	c #000000",
"U 	c #000000",
"V 	c #000000",
"W 	c #000000",
"X 	c #000000",
"Y 	c #000000",
"Z 	c #000000",
"` 	c #000000",
" .	c #000000",
"..	c #000000",
"+.	c #000000",
"@.	c #000000",
"#.	c #000000",
"$.	c #000000",
"%.	c #000000",
"&.	c #000000",
"*.	c #000000",
"=.	c #000000",
"-.	c #000000",
";.	c #000000",
">.	c #000000",
",.	c #000000",
"'.	c #000000",
").	c #000000",
"!.	c #000000",
"~.	c #000000",
"{.	c #000000",
"].	c #000000",
"^.	c #000000",
"/.	c #000000",
"(.	c #000000",
"_.	c #000000",
":.	c #000000",
"<.	c #000000",
"[.	c #000000",
"}.	c #000000",
"|.	c #000000",
"1.	c #000000",
"2.	c #000000",
"3.	c #000000",
"4.	c #000000",
"5.	c #000000",
"6.	c #000000",
"7.	c #000000",
"8.	c #000000",
"9.	c #000000",
"0.	c #000000",
"a.	c #000000",
"b.	c #000000",
"c.	c #000000",
"d.	c #000000",
"e.	c #000000",
"f.	c #000000",
"g.	c #000000",
"h.	c #000000",
"i.	c #000000",
"j.	c #000000",
"k.	c #000000",
"l.	c #000000",
"m.	c #000000",
"n.	c #000000",
"o.	c #000000",
"p.	c #000000",
"q.	c #000000",
"r.	c #000000",
"s.	c #000000",
"t.	c #000000",
"u.	c #000000",
"v.	c #000000",
"w.	c #000000",
"x.	c #000000",
"y.	c #000000",
"z.	c #000000",
"A.	c #000000",
"B.	c #000000",
"C.	c #000000",
"D.	c #000000",
"E.	c #000000",
"F.	c #000000",
"G.	c #000000",
"H.	c #000000",
"I.	c #000000",
"J.	c #000000",
"K.	c #000000",
"L.	c #000000",
"M.	c #000000",
"N.	c #000000",
"O.	c #000000",
"P.	c #000000",
"Q.	c #000000",
"R.	c #000000",
"S.	c #000000",
"T.	c #000000",
"U.	c #000000",
"V.	c #000000",
"W.	c #000000",
"X.	c #000000",
"Y.	c #000000",
"Z.	c #000000",
"`.	c #000000",
" +	c #000000",
".+	c #000000",
"++	c #000000",
"@+	c #000000",
"#+	c #000000",
"$+	c #000000",
"%+	c #000000",
"&+	c #000000",
"*+	c #000000",
"=+	c #000000",
"-+	c #000000",
";+	c #000000",
">+	c #000000",
",+	c #000000",
"'+	c #000000",
")+	c #000000",
"!+	c #000000",
"~+	c #000000",
"{+	c #000000",
"]+	c #000000",
"^+	c #000000",
"/+	c #000000",
"(+	c #000000",
"_+	c #000000",
":+	c #000000",
"<+	c #000000",
"[+	c #000000",
"}+	c #000000",
"|+	c #000000",
"1+	c #000000",
"2+	c #000000",
"3+	c #000000",
"4+	c #000000",
"5+	c #000000",
"6+	c #000000",
"7+	c #000000",
"8+	c #000000",
"9+	c #000000",
"0+	c #000000",
"a+	c #000000",
"b+	c #000000",
"c+	c #000000",
"d+	c #000000",
"e+	c #000000",
"f+	c #000000",
"g+	c #000000",
"h+	c #000000",
"i+	c #000000",
"j+	c #000000",
"k+	c #000000",
"l+	c #000000",
"m+	c #000000",
"n+	c #000000",
"o+	c #000000",
"p+	c #000000",
"q+	c #000000",
"r+	c #000000",
"s+	c #000000",
"t+	c #000000",
"u+	c #000000",
"v+	c #000000",
"w+	c #000000",
"x+	c #000000",
"y+	c #FFFBF0",
"z+	c #A0A0A4",
"A+	c #808080",
"B+	c #FF0000",
"C+	c #00FF00",
"D+	c #FFFF00",
"E+	c #0000FF",
"F+	c #FF00FF",
"G+	c #00FFFF",
"H+	c #FFFFFF",
"                                ",
"                                ",
"        : :                     ",
"        _ ( : }                 ",
"        ^ ^ ^ ^ _ [             ",
"        ^ ^ ^ ^ ^ ^ ( <         ",
"        ~ ~ ~ ~ ~ ~ ~ ~ { <     ",
"        , , , , , , , , , !     ",
"        > > > > > > > > ! <     ",
"        ; ; ; ; ; ; ) ]         ",
"        ; ; ; ; ) ]             ",
"        ; ; ' ]                 ",
"        / ]                     ",
"                                ",
"                                ",
"                                "};
