/* XPM */
static char * cfSmall_xpm[] = {
"16 16 17 1",
" 	c None",
".	c #646464",
"+	c #35354F",
"@	c #040404",
"#	c #5A2D01",
"$	c #B2B2B2",
"%	c #6699CC",
"&	c #A6CAF0",
"*	c #FFD526",
"=	c #F3CD96",
"-	c #BCA574",
";	c #665A3F",
">	c #D0B681",
",	c #000000",
"'	c #D0B680",
")	c #917F5B",
"!	c #F3D596",
"             .  ",
"       ++++@+#. ",
"  @   $@%&&&@*@.",
" @=@   $@%&&&+@ ",
"@==-@@@;$@%&&&+$",
"@===->=@@#@%&&&+",
",>'===>@#*@@%&%@",
"$@'===>@**#$@%@$",
"$@>====)@@.$$@$ ",
" @'====>=>@$    ",
" .'===>=#!@$    ",
"  ,'=>=;=;@$    ",
"  #,>=;>@@$$    ",
" #**,@@@$$$     ",
"#**@$$$$$$      ",
" @@$$           "};
