/* XPM */
static char * gfInstEnded_xpm[] = {
"16 16 257 2",
"  	c None",
". 	c #000000",
"+ 	c #FFFFFF",
"@ 	c #000002",
"# 	c #0F0F18",
"$ 	c #414162",
"% 	c #636377",
"& 	c #535360",
"* 	c #6C7CB7",
"= 	c #515F8C",
"- 	c #7797D2",
"; 	c #051403",
"> 	c #16560E",
", 	c #12440B",
"' 	c #228316",
") 	c #218015",
"! 	c #175A0F",
"~ 	c #1F7614",
"{ 	c #1B6912",
"] 	c #185D10",
"^ 	c #0C2E08",
"/ 	c #051303",
"( 	c #268517",
"_ 	c #0C2808",
": 	c #257A14",
"< 	c #15420D",
"[ 	c #308B1D",
"} 	c #368E21",
"| 	c #1B4F0E",
"1 	c #399022",
"2 	c #3C9224",
"3 	c #56D231",
"4 	c #2A6718",
"5 	c #67FB3B",
"6 	c #255816",
"7 	c #3F9426",
"8 	c #419427",
"9 	c #3D8C25",
"0 	c #66EE3A",
"a 	c #429427",
"b 	c #469729",
"c 	c #499B28",
"d 	c #1D3F0D",
"e 	c #76FC35",
"f 	c #75F934",
"g 	c #76FA35",
"h 	c #52AF25",
"i 	c #4F9F2A",
"j 	c #5FB436",
"k 	c #539E30",
"l 	c #6BCB37",
"m 	c #58A133",
"n 	c #64AC37",
"o 	c #122306",
"p 	c #87FC2F",
"q 	c #7FEF2C",
"r 	c #4B911B",
"s 	c #7EE433",
"t 	c #5EAD1F",
"u 	c #5BA71E",
"v 	c #61B321",
"w 	c #5FAF22",
"x 	c #84DE31",
"y 	c #98FC2F",
"z 	c #95F82E",
"A 	c #79BB34",
"B 	c #94E72D",
"C 	c #A1F32D",
"D 	c #A9FC2F",
"E 	c #A6EC2E",
"F 	c #A9EE2C",
"G 	c #B9FD2F",
"H 	c #AFEA2B",
"I 	c #B7E931",
"J 	c #C7FD2F",
"K 	c #CEFA33",
"L 	c #D2FD33",
"M 	c #FBFFEB",
"N 	c #DDFD49",
"O 	c #ECFE89",
"P 	c #F7FFCF",
"Q 	c #B2B2B2",
"R 	c #969696",
"S 	c #5F5F5F",
"T 	c #CFD2E4",
"U 	c #000000",
"V 	c #000000",
"W 	c #000000",
"X 	c #000000",
"Y 	c #000000",
"Z 	c #000000",
"` 	c #000000",
" .	c #000000",
"..	c #000000",
"+.	c #000000",
"@.	c #000000",
"#.	c #000000",
"$.	c #000000",
"%.	c #000000",
"&.	c #000000",
"*.	c #000000",
"=.	c #000000",
"-.	c #000000",
";.	c #000000",
">.	c #000000",
",.	c #000000",
"'.	c #000000",
").	c #000000",
"!.	c #000000",
"~.	c #000000",
"{.	c #000000",
"].	c #000000",
"^.	c #000000",
"/.	c #000000",
"(.	c #000000",
"_.	c #000000",
":.	c #000000",
"<.	c #000000",
"[.	c #000000",
"}.	c #000000",
"|.	c #000000",
"1.	c #000000",
"2.	c #000000",
"3.	c #000000",
"4.	c #000000",
"5.	c #000000",
"6.	c #000000",
"7.	c #000000",
"8.	c #000000",
"9.	c #000000",
"0.	c #000000",
"a.	c #000000",
"b.	c #000000",
"c.	c #000000",
"d.	c #000000",
"e.	c #000000",
"f.	c #000000",
"g.	c #000000",
"h.	c #000000",
"i.	c #000000",
"j.	c #000000",
"k.	c #000000",
"l.	c #000000",
"m.	c #000000",
"n.	c #000000",
"o.	c #000000",
"p.	c #000000",
"q.	c #000000",
"r.	c #000000",
"s.	c #000000",
"t.	c #000000",
"u.	c #000000",
"v.	c #000000",
"w.	c #000000",
"x.	c #000000",
"y.	c #000000",
"z.	c #000000",
"A.	c #000000",
"B.	c #000000",
"C.	c #000000",
"D.	c #000000",
"E.	c #000000",
"F.	c #000000",
"G.	c #000000",
"H.	c #000000",
"I.	c #000000",
"J.	c #000000",
"K.	c #000000",
"L.	c #000000",
"M.	c #000000",
"N.	c #000000",
"O.	c #000000",
"P.	c #000000",
"Q.	c #000000",
"R.	c #000000",
"S.	c #000000",
"T.	c #000000",
"U.	c #000000",
"V.	c #000000",
"W.	c #000000",
"X.	c #000000",
"Y.	c #000000",
"Z.	c #000000",
"`.	c #000000",
" +	c #000000",
".+	c #000000",
"++	c #000000",
"@+	c #000000",
"#+	c #000000",
"$+	c #000000",
"%+	c #000000",
"&+	c #000000",
"*+	c #000000",
"=+	c #000000",
"-+	c #000000",
";+	c #000000",
">+	c #000000",
",+	c #000000",
"'+	c #000000",
")+	c #000000",
"!+	c #000000",
"~+	c #000000",
"{+	c #000000",
"]+	c #000000",
"^+	c #000000",
"/+	c #000000",
"(+	c #000000",
"_+	c #000000",
":+	c #000000",
"<+	c #000000",
"[+	c #000000",
"}+	c #000000",
"|+	c #000000",
"1+	c #000000",
"2+	c #000000",
"3+	c #000000",
"4+	c #000000",
"5+	c #000000",
"6+	c #000000",
"7+	c #000000",
"8+	c #000000",
"9+	c #000000",
"0+	c #000000",
"a+	c #000000",
"b+	c #000000",
"c+	c #000000",
"d+	c #000000",
"e+	c #000000",
"f+	c #000000",
"g+	c #000000",
"h+	c #000000",
"i+	c #000000",
"j+	c #000000",
"k+	c #000000",
"l+	c #000000",
"m+	c #000000",
"n+	c #000000",
"o+	c #000000",
"p+	c #000000",
"q+	c #000000",
"r+	c #000000",
"s+	c #000000",
"t+	c #000000",
"u+	c #000000",
"v+	c #000000",
"w+	c #000000",
"x+	c #000000",
"y+	c #000000",
"z+	c #000000",
"A+	c #000000",
"B+	c #000000",
"C+	c #000000",
"D+	c #000000",
"E+	c #000000",
"F+	c #000000",
"G+	c #000000",
"H+	c #000000",
"8 8 8 8 8 8 8 8 8 8 8 8 8 8 8 a ",
"8 M P R $ R N L J G D y p e 0 2 ",
"8 M R # * # R L J G D y p g j ~ ",
"8 M $ = - = $ K A E D y p l 7 < ",
"8 M R # = # R I k i B y s m ] 6 ",
"8 M P Q @ Q N L w 2 c x n [ _ 9 ",
"8 M @ $ = $ @ L H ( } b 1 , 4 8 ",
"8 @ $ = * = $ @ J t ) ' ! / 3 8 ",
"@ % $ = - = $ % @ F : { ^ d 5 8 ",
"@ Q $ $ $ $ $ Q @ G v > ; h 5 8 ",
"$ M $ $ $ @ S Q $ G C | o f 5 8 ",
"8 M S $ & @ S Q J G D u r e 5 8 ",
"8 M $ $ Q @ $ Q J G D z q e 5 8 ",
"8 M S $ Q @ $ Q J G D y p e 5 8 ",
"8 M $ $ O @ $ L J G D y p e 5 8 ",
"8 @ @ @ 8 @ $ $ 8 8 8 8 8 8 8 8 "};
