/* XPM */
static char * gfManualInst_xpm[] = {
"16 16 257 2",
"  	c None",
". 	c #000000",
"+ 	c #FFFFFF",
"@ 	c #C9C6D3",
"# 	c #070708",
"$ 	c #B2B4C4",
"% 	c #CACDDF",
"& 	c #C5C8DA",
"* 	c #CFD2E4",
"= 	c #C8CBDC",
"- 	c #C5C8D9",
"; 	c #44454B",
"> 	c #CFD2E3",
", 	c #CDD0E1",
"' 	c #494A50",
") 	c #B5B8C8",
"! 	c #AAADBC",
"~ 	c #A3A6B4",
"{ 	c #BBBECE",
"] 	c #AFB2C1",
"^ 	c #3A3B40",
"/ 	c #2E2F33",
"( 	c #61636B",
"_ 	c #1D1E20",
": 	c #080909",
"< 	c #040301",
"[ 	c #090705",
"} 	c #0C0601",
"| 	c #A2500E",
"1 	c #BA6826",
"2 	c #A75F25",
"3 	c #D68442",
"4 	c #B77540",
"5 	c #EC9A58",
"6 	c #7D522F",
"7 	c #D68D52",
"8 	c #CA864F",
"9 	c #E39A5F",
"0 	c #F2A96E",
"a 	c #F6B37D",
"b 	c #F4B27D",
"c 	c #F9BA87",
"d 	c #F5B785",
"e 	c #FABE8D",
"f 	c #7B3C0A",
"g 	c #6F3609",
"h 	c #401F05",
"i 	c #8C440C",
"j 	c #522807",
"k 	c #723B0F",
"l 	c #8B4B19",
"m 	c #BA6827",
"n 	c #170D05",
"o 	c #824C23",
"p 	c #7B4821",
"q 	c #824E26",
"r 	c #643C1D",
"s 	c #C77B3E",
"t 	c #C1773C",
"u 	c #BE7942",
"v 	c #A66A3A",
"w 	c #B3723F",
"x 	c #27190E",
"y 	c #8D5A33",
"z 	c #D1874D",
"A 	c #825432",
"B 	c #CB8751",
"C 	c #C48350",
"D 	c #A06A42",
"E 	c #CC8B57",
"F 	c #C28454",
"G 	c #D4935F",
"H 	c #CF905E",
"I 	c #DE9B66",
"J 	c #C3885A",
"K 	c #E3A370",
"L 	c #CF9466",
"M 	c #E5A573",
"N 	c #D4996B",
"O 	c #E2A373",
"P 	c #D99E70",
"Q 	c #BC8961",
"R 	c #DBA072",
"S 	c #F9B987",
"T 	c #F8B987",
"U 	c #E2A87B",
"V 	c #C3906A",
"W 	c #F4B787",
"X 	c #EDB284",
"Y 	c #F4B88A",
"Z 	c #FDC395",
"` 	c #5F4938",
" .	c #110D0A",
"..	c #FFC79B",
"+.	c #AB8568",
"@.	c #96755B",
"#.	c #6D4325",
"$.	c #785137",
"%.	c #976D52",
"&.	c #6C4E3B",
"*.	c #A47E66",
"=.	c #C29A81",
"-.	c #A1806C",
";.	c #6C5A52",
">.	c #A98E82",
",.	c #B4A19C",
"'.	c #C9B9B8",
").	c #1F1C1C",
"!.	c #BCACAC",
"~.	c #020202",
"{.	c #CFD2E4",
"].	c #000000",
"^.	c #000000",
"/.	c #000000",
"(.	c #000000",
"_.	c #000000",
":.	c #000000",
"<.	c #000000",
"[.	c #000000",
"}.	c #000000",
"|.	c #000000",
"1.	c #000000",
"2.	c #000000",
"3.	c #000000",
"4.	c #000000",
"5.	c #000000",
"6.	c #000000",
"7.	c #000000",
"8.	c #000000",
"9.	c #000000",
"0.	c #000000",
"a.	c #000000",
"b.	c #000000",
"c.	c #000000",
"d.	c #000000",
"e.	c #000000",
"f.	c #000000",
"g.	c #000000",
"h.	c #000000",
"i.	c #000000",
"j.	c #000000",
"k.	c #000000",
"l.	c #000000",
"m.	c #000000",
"n.	c #000000",
"o.	c #000000",
"p.	c #000000",
"q.	c #000000",
"r.	c #000000",
"s.	c #000000",
"t.	c #000000",
"u.	c #000000",
"v.	c #000000",
"w.	c #000000",
"x.	c #000000",
"y.	c #000000",
"z.	c #000000",
"A.	c #000000",
"B.	c #000000",
"C.	c #000000",
"D.	c #000000",
"E.	c #000000",
"F.	c #000000",
"G.	c #000000",
"H.	c #000000",
"I.	c #000000",
"J.	c #000000",
"K.	c #000000",
"L.	c #000000",
"M.	c #000000",
"N.	c #000000",
"O.	c #000000",
"P.	c #000000",
"Q.	c #000000",
"R.	c #000000",
"S.	c #000000",
"T.	c #000000",
"U.	c #000000",
"V.	c #000000",
"W.	c #000000",
"X.	c #000000",
"Y.	c #000000",
"Z.	c #000000",
"`.	c #000000",
" +	c #000000",
".+	c #000000",
"++	c #000000",
"@+	c #000000",
"#+	c #000000",
"$+	c #000000",
"%+	c #000000",
"&+	c #000000",
"*+	c #000000",
"=+	c #000000",
"-+	c #000000",
";+	c #000000",
">+	c #000000",
",+	c #000000",
"'+	c #000000",
")+	c #000000",
"!+	c #000000",
"~+	c #000000",
"{+	c #000000",
"]+	c #000000",
"^+	c #000000",
"/+	c #000000",
"(+	c #000000",
"_+	c #000000",
":+	c #000000",
"<+	c #000000",
"[+	c #000000",
"}+	c #000000",
"|+	c #000000",
"1+	c #000000",
"2+	c #000000",
"3+	c #000000",
"4+	c #000000",
"5+	c #000000",
"6+	c #000000",
"7+	c #000000",
"8+	c #000000",
"9+	c #000000",
"0+	c #000000",
"a+	c #000000",
"b+	c #000000",
"c+	c #000000",
"d+	c #000000",
"e+	c #000000",
"f+	c #000000",
"g+	c #000000",
"h+	c #000000",
"i+	c #000000",
"j+	c #000000",
"k+	c #000000",
"l+	c #000000",
"m+	c #000000",
"n+	c #000000",
"o+	c #000000",
"p+	c #000000",
"q+	c #000000",
"r+	c #000000",
"s+	c #000000",
"t+	c #000000",
"u+	c #000000",
"v+	c #000000",
"w+	c #000000",
"x+	c #000000",
"y+	c #000000",
"z+	c #000000",
"A+	c #000000",
"B+	c #000000",
"C+	c #000000",
"D+	c #000000",
"E+	c #000000",
"F+	c #000000",
"G+	c #000000",
"H+	c #000000",
"        '.1 1 1 1 1 =.  ~ /     ",
"        1 9 0 S e 0 | j # . ~   ",
"      1 3 a ........6 . . ;     ",
"      z a ..S 0 d ` . . h *.~   ",
"    1 K e P v g x . [ +.t f ~   ",
"    m c ..v #. .. } Q c ..J y ~ ",
"  1 I Z L &.: . ).$.M a ....v y ",
"  u W R r ~.. ^ - -.B 0 T ..X C ",
"  F Y A < . ( , ,.%.7 5 T ....e ",
"  V @.n ;.p q o f | G 5 T ......",
"$ D k i 4 s s 8 N ..............",
"_ f w O Z U ....................",
"' f l 2 H E b ..................",
"    = !.>.f f f f f f f f f f f ",
"          = ~ ~ ~ ~ ~ ~ ~ ~ ~ ~ ",
"                                "};
