/* XPM */
static char * info25x25_xpm[] = {
"16 16 257 2",
"  	c None",
". 	c #000000",
"+ 	c #330000",
"@ 	c #660000",
"# 	c #990000",
"$ 	c #CC0000",
"% 	c #FF0000",
"& 	c #003300",
"* 	c #333300",
"= 	c #663300",
"- 	c #993300",
"; 	c #CC3300",
"> 	c #FF3300",
", 	c #006600",
"' 	c #336600",
") 	c #666600",
"! 	c #996600",
"~ 	c #CC6600",
"{ 	c #FF6600",
"] 	c #009900",
"^ 	c #339900",
"/ 	c #669900",
"( 	c #999900",
"_ 	c #CC9900",
": 	c #FF9900",
"< 	c #00CC00",
"[ 	c #33CC00",
"} 	c #66CC00",
"| 	c #99CC00",
"1 	c #CCCC00",
"2 	c #FFCC00",
"3 	c #00FF00",
"4 	c #33FF00",
"5 	c #66FF00",
"6 	c #99FF00",
"7 	c #CCFF00",
"8 	c #FFFF00",
"9 	c #000033",
"0 	c #330033",
"a 	c #660033",
"b 	c #990033",
"c 	c #CC0033",
"d 	c #FF0033",
"e 	c #003333",
"f 	c #333333",
"g 	c #663333",
"h 	c #993333",
"i 	c #CC3333",
"j 	c #FF3333",
"k 	c #006633",
"l 	c #336633",
"m 	c #666633",
"n 	c #996633",
"o 	c #CC6633",
"p 	c #FF6633",
"q 	c #009933",
"r 	c #339933",
"s 	c #669933",
"t 	c #999933",
"u 	c #CC9933",
"v 	c #FF9933",
"w 	c #00CC33",
"x 	c #33CC33",
"y 	c #66CC33",
"z 	c #99CC33",
"A 	c #CCCC33",
"B 	c #FFCC33",
"C 	c #00FF33",
"D 	c #33FF33",
"E 	c #66FF33",
"F 	c #99FF33",
"G 	c #CCFF33",
"H 	c #FFFF33",
"I 	c #000066",
"J 	c #330066",
"K 	c #660066",
"L 	c #990066",
"M 	c #CC0066",
"N 	c #FF0066",
"O 	c #003366",
"P 	c #333366",
"Q 	c #663366",
"R 	c #993366",
"S 	c #CC3366",
"T 	c #FF3366",
"U 	c #006666",
"V 	c #336666",
"W 	c #666666",
"X 	c #996666",
"Y 	c #CC6666",
"Z 	c #FF6666",
"` 	c #009966",
" .	c #339966",
"..	c #669966",
"+.	c #999966",
"@.	c #CC9966",
"#.	c #FF9966",
"$.	c #00CC66",
"%.	c #33CC66",
"&.	c #66CC66",
"*.	c #99CC66",
"=.	c #CCCC66",
"-.	c #FFCC66",
";.	c #00FF66",
">.	c #33FF66",
",.	c #66FF66",
"'.	c #99FF66",
").	c #CCFF66",
"!.	c #FFFF66",
"~.	c #000099",
"{.	c #330099",
"].	c #660099",
"^.	c #990099",
"/.	c #CC0099",
"(.	c #FF0099",
"_.	c #003399",
":.	c #333399",
"<.	c #663399",
"[.	c #993399",
"}.	c #CC3399",
"|.	c #FF3399",
"1.	c #006699",
"2.	c #336699",
"3.	c #666699",
"4.	c #996699",
"5.	c #CC6699",
"6.	c #FF6699",
"7.	c #009999",
"8.	c #339999",
"9.	c #669999",
"0.	c #999999",
"a.	c #CC9999",
"b.	c #FF9999",
"c.	c #00CC99",
"d.	c #33CC99",
"e.	c #66CC99",
"f.	c #99CC99",
"g.	c #CCCC99",
"h.	c #FFCC99",
"i.	c #00FF99",
"j.	c #33FF99",
"k.	c #66FF99",
"l.	c #99FF99",
"m.	c #CCFF99",
"n.	c #FFFF99",
"o.	c #0000CC",
"p.	c #3300CC",
"q.	c #6600CC",
"r.	c #9900CC",
"s.	c #CC00CC",
"t.	c #FF00CC",
"u.	c #0033CC",
"v.	c #3333CC",
"w.	c #6633CC",
"x.	c #9933CC",
"y.	c #CC33CC",
"z.	c #FF33CC",
"A.	c #0066CC",
"B.	c #3366CC",
"C.	c #6666CC",
"D.	c #9966CC",
"E.	c #CC66CC",
"F.	c #FF66CC",
"G.	c #0099CC",
"H.	c #3399CC",
"I.	c #6699CC",
"J.	c #9999CC",
"K.	c #CC99CC",
"L.	c #FF99CC",
"M.	c #00CCCC",
"N.	c #33CCCC",
"O.	c #66CCCC",
"P.	c #99CCCC",
"Q.	c #CCCCCC",
"R.	c #FFCCCC",
"S.	c #00FFCC",
"T.	c #33FFCC",
"U.	c #66FFCC",
"V.	c #99FFCC",
"W.	c #CCFFCC",
"X.	c #FFFFCC",
"Y.	c #0000FF",
"Z.	c #3300FF",
"`.	c #6600FF",
" +	c #9900FF",
".+	c #CC00FF",
"++	c #FF00FF",
"@+	c #0033FF",
"#+	c #3333FF",
"$+	c #6633FF",
"%+	c #9933FF",
"&+	c #CC33FF",
"*+	c #FF33FF",
"=+	c #0066FF",
"-+	c #3366FF",
";+	c #6666FF",
">+	c #9966FF",
",+	c #CC66FF",
"'+	c #FF66FF",
")+	c #0099FF",
"!+	c #3399FF",
"~+	c #6699FF",
"{+	c #9999FF",
"]+	c #CC99FF",
"^+	c #FF99FF",
"/+	c #00CCFF",
"(+	c #33CCFF",
"_+	c #66CCFF",
":+	c #99CCFF",
"<+	c #CCCCFF",
"[+	c #FFCCFF",
"}+	c #00FFFF",
"|+	c #33FFFF",
"1+	c #66FFFF",
"2+	c #99FFFF",
"3+	c #CCFFFF",
"4+	c #FFFFFF",
"5+	c #000000",
"6+	c #000000",
"7+	c #000000",
"8+	c #000000",
"9+	c #000000",
"0+	c #000000",
"a+	c #000000",
"b+	c #000000",
"c+	c #000000",
"d+	c #000000",
"e+	c #000000",
"f+	c #000000",
"g+	c #000000",
"h+	c #000000",
"i+	c #000000",
"j+	c #000000",
"k+	c #000000",
"l+	c #000000",
"m+	c #000000",
"n+	c #000000",
"o+	c #000000",
"p+	c #000000",
"q+	c #000000",
"r+	c #000000",
"s+	c #000000",
"t+	c #000000",
"u+	c #000000",
"v+	c #000000",
"w+	c #000000",
"x+	c #000000",
"y+	c #000000",
"z+	c #000000",
"A+	c #000000",
"B+	c #000000",
"C+	c #000000",
"D+	c #000000",
"E+	c #000000",
"F+	c #000000",
"G+	c #000000",
"H+	c #000000",
"        9 9 9 9 9 9 9           ",
"    9 9 4+4+4+4+4+4+4+. .       ",
"  9 4+4+4+4+Z.Y.{.4+4+4+Q..     ",
"  9 4+4+4+4+0.Y.{.4+4+4+4+. 0.[+",
"9 4+4+4+4+4+4+4+4+4+4+4+4+Q..   ",
"9 4+4+4+4+0.Y.o.~.4+4+4+4+4+. W ",
"9 4+4+4+4+4+0.Y.{.4+4+4+4+4+. 0.",
"9 4+4+4+4+4+9.Y.{.4+4+4+4+4+. 4.",
"9 Q.4+4+4+4+I.o.{.4+4+4+4+4+. W ",
"  9 4+4+4+Y.Z.o.Y.{.4+4+4+. 0.Q.",
"    . g.4+4+4+4+4+4+4+4+. 0.3.  ",
"      9 . g.4+4+4+4+. . W +.    ",
"        Q.. . g.4+. 4.3.Q.      ",
"              . X.. W           ",
"                . . ..          ",
"                  0.W           "};
