/* XPM */
static char *111_xpm[] = {
/* width height num_colors chars_per_pixel */
"    54    54        2            1",
/* colors */
"` c #000000",
". c #ffffff",
/* pixels */
"``````````````````````````````````````````````````````",
"``````````````````````````````````````````````````````",
"``````````````````````````````````````````````````````",
"``````````````````````````````````````````````````````",
"``````````````````````````````````````````````````````",
"``````````````````````````````````````````````````````",
"````````````````````````````````````````.`````````````",
"````````````````````````````````````````.`````````````",
"``````````````````````````````````````.`..````````````",
"`````````````````````````````````````.```.````````````",
"```````````````````````````````````````..`````````````",
"``````````````````````````````````````....````````````",
"````````````````````````````````````.`.`...```````````",
"`````````````````````````````.````````...`````````````",
"``````````````````````````````.``.````````````````````",
"```````````````````````````.`..```````````````````````",
"`````````````````````````.``.````````.````````````````",
"````````````````````````````.`.```.``````.....````````",
"``````````````````````````.````.````.```.`.`.....`````",
"`````````````````````.```````.`.`.````.`..`..`...`````",
"``````````````````````````````...```````..`.`....`````",
"````````````````````````````````.```.`.``.......``````",
"````````````````````````````.```.```............``````",
"``````````````````````````````````.`.........`..``````",
"`````````````````````````````.`.```.`.``.`..`...``````",
"``````````````````````````````.`````.`.`.....`....````",
"``````````````````````````````.`.```.``.....`..`.`````",
"````````````````````````````````.`.``.``....`.``..````",
"````````````````````````````.```.`.`````...`..`..`.```",
"`````````````````````````````````.````.```.`......````",
"```````````````````````````````````..`.```....``.`````",
"``````````````````````.`````````````...`.`......``````",
"```````````````````.```````````````````.```....```````",
"`````````````.``...`````````````````````````...```````",
"````````````````..``````````````````````````...```````",
"```````````````.`.```````````````````````````...``````",
"``````````````.```.`````````````````````````....``````",
"````````````...```..```````````````````````....```````",
"`````````````.``.`.````````````````````.........``````",
"``````````.```````.```````````````````.......`.```````",
"`````````````.````..```````...`.`...`........`.```````",
"```````````.``````.````````.`....``..`.`.```..````````",
"``````````````````.```````.....`.`.``.```.`..`````````",
"`````````````````````````...`````.`..`..``...`````````",
"``````````````````.`````..`.````````````..````````````",
"````````````````````````.`````````````````````````````",
"```````````````````````.`..```````````````````````````",
"``````````````````````````````````````````````````````",
"``````````````````````````````````````````````````````",
"``````````````````````````````````````````````````````",
"``````````````````````````````````````````````````````",
"``````````````````````````````````````````````````````",
"``````````````````````````````````````````````````````",
"......................................................"
};
