/* XPM */
static char * OpenJob_xpm[] = {
"20 20 257 2",
"  	c None",
". 	c #082921",
"+ 	c #082929",
"@ 	c #102929",
"# 	c #105273",
"$ 	c #106B8C",
"% 	c #1084B5",
"& 	c #109CCE",
"* 	c #182129",
"= 	c #182131",
"- 	c #1884AD",
"; 	c #18ADDE",
"> 	c #212131",
", 	c #212139",
"' 	c #213152",
") 	c #213939",
"! 	c #216B8C",
"~ 	c #216B94",
"{ 	c #21B5E7",
"] 	c #292139",
"^ 	c #296B8C",
"/ 	c #29BDE7",
"( 	c #312142",
"_ 	c #312939",
": 	c #312942",
"< 	c #318CAD",
"[ 	c #392931",
"} 	c #392939",
"| 	c #39294A",
"1 	c #393142",
"2 	c #39314A",
"3 	c #39424A",
"4 	c #395273",
"5 	c #398CAD",
"6 	c #399CC6",
"7 	c #39BDE7",
"8 	c #42314A",
"9 	c #423952",
"0 	c #42526B",
"a 	c #4294AD",
"b 	c #4A3952",
"c 	c #4A4252",
"d 	c #4A425A",
"e 	c #4A5263",
"f 	c #4A5A63",
"g 	c #4A94AD",
"h 	c #4AC6E7",
"i 	c #524239",
"j 	c #524263",
"k 	c #524A39",
"l 	c #524A42",
"m 	c #524A4A",
"n 	c #524A52",
"o 	c #524A5A",
"p 	c #524A63",
"q 	c #525263",
"r 	c #525A6B",
"s 	c #5A4A6B",
"t 	c #5A526B",
"u 	c #5A5A63",
"v 	c #635273",
"w 	c #93921B",
"x 	c #6B5A7B",
"y 	c #6B637B",
"z 	c #6B7384",
"A 	c #A09E12",
"B 	c #737373",
"C 	c #737384",
"D 	c #7B7384",
"E 	c #7B7B8C",
"F 	c #B2B00E",
"G 	c #C7C511",
"H 	c #C7C511",
"I 	c #848494",
"J 	c #BFBD0F",
"K 	c #B6B41E",
"L 	c #E0DE1A",
"M 	c #E2E014",
"N 	c #BEBC16",
"O 	c #F0EF74",
"P 	c #D5D321",
"Q 	c #F2F050",
"R 	c #F0EE36",
"S 	c #F8FF2B",
"T 	c #F4FC08",
"U 	c #F4FB25",
"V 	c #A59CBD",
"W 	c #EDEA17",
"X 	c #AD9CBD",
"Y 	c #EDEA14",
"Z 	c #EDEA1C",
"` 	c #EDEA1A",
" .	c #EFED23",
"..	c #B5BDA5",
"+.	c #EDEA17",
"@.	c #EDEA17",
"#.	c #F4FB25",
"$.	c #C6B5CE",
"%.	c #C6C6BD",
"&.	c #C6C6C6",
"*.	c #FFFFFF",
"=.	c #FFFFFF",
"-.	c #FFFFFF",
";.	c #FFFFFF",
">.	c #FFFFFF",
",.	c #FFFFFF",
"'.	c #FFFFFF",
").	c #FFFFFF",
"!.	c #FFFFFF",
"~.	c #FFFFFF",
"{.	c #FFFFFF",
"].	c #FFFFFF",
"^.	c #FFFFFF",
"/.	c #FFFFFF",
"(.	c #FFFFFF",
"_.	c #FFFFFF",
":.	c #FFFFFF",
"<.	c #FFFFFF",
"[.	c #FFFFFF",
"}.	c #FFFFFF",
"|.	c #FFFFFF",
"1.	c #FFFFFF",
"2.	c #FFFFFF",
"3.	c #FFFFFF",
"4.	c #FFFFFF",
"5.	c #FFFFFF",
"6.	c #FFFFFF",
"7.	c #FFFFFF",
"8.	c #FFFFFF",
"9.	c #FFFFFF",
"0.	c #FFFFFF",
"a.	c #FFFFFF",
"b.	c #FFFFFF",
"c.	c #FFFFFF",
"d.	c #FFFFFF",
"e.	c #FFFFFF",
"f.	c #FFFFFF",
"g.	c #FFFFFF",
"h.	c #FFFFFF",
"i.	c #FFFFFF",
"j.	c #FFFFFF",
"k.	c #FFFFFF",
"l.	c #FFFFFF",
"m.	c #FFFFFF",
"n.	c #FFFFFF",
"o.	c #FFFFFF",
"p.	c #FFFFFF",
"q.	c #FFFFFF",
"r.	c #FFFFFF",
"s.	c #FFFFFF",
"t.	c #FFFFFF",
"u.	c #FFFFFF",
"v.	c #FFFFFF",
"w.	c #FFFFFF",
"x.	c #FFFFFF",
"y.	c #FFFFFF",
"z.	c #FFFFFF",
"A.	c #FFFFFF",
"B.	c #FFFFFF",
"C.	c #FFFFFF",
"D.	c #FFFFFF",
"E.	c #FFFFFF",
"F.	c #FFFFFF",
"G.	c #FFFFFF",
"H.	c #FFFFFF",
"I.	c #FFFFFF",
"J.	c #FFFFFF",
"K.	c #FFFFFF",
"L.	c #FFFFFF",
"M.	c #FFFFFF",
"N.	c #FFFFFF",
"O.	c #FFFFFF",
"P.	c #FFFFFF",
"Q.	c #FFFFFF",
"R.	c #FFFFFF",
"S.	c #FFFFFF",
"T.	c #FFFFFF",
"U.	c #FFFFFF",
"V.	c #FFFFFF",
"W.	c #FFFFFF",
"X.	c #FFFFFF",
"Y.	c #FFFFFF",
"Z.	c #FFFFFF",
"`.	c #FFFFFF",
" +	c #FFFFFF",
".+	c #FFFFFF",
"++	c #FFFFFF",
"@+	c #FFFFFF",
"#+	c #FFFFFF",
"$+	c #FFFFFF",
"%+	c #FFFFFF",
"&+	c #FFFFFF",
"*+	c #FFFFFF",
"=+	c #FFFFFF",
"-+	c #FFFFFF",
";+	c #FFFFFF",
">+	c #FFFFFF",
",+	c #FFFFFF",
"'+	c #FFFFFF",
")+	c #FFFFFF",
"!+	c #FFFFFF",
"~+	c #FFFFFF",
"{+	c #FFFFFF",
"]+	c #FFFFFF",
"^+	c #FFFFFF",
"/+	c #FFFFFF",
"(+	c #FFFFFF",
"_+	c #FFFFFF",
":+	c #FFFFFF",
"<+	c #FFFFFF",
"[+	c #FFFFFF",
"}+	c #FFFFFF",
"|+	c #FFFFFF",
"1+	c #FFFFFF",
"2+	c #FFFFFF",
"3+	c #FFFFFF",
"4+	c #FFFFFF",
"5+	c #FFFFFF",
"6+	c #FFFFFF",
"7+	c #FFFFFF",
"8+	c #FFFFFF",
"9+	c #FFFFFF",
"0+	c #FFFFFF",
"a+	c #FFFFFF",
"b+	c #FFFFFF",
"c+	c #FFFFFF",
"d+	c #FFFFFF",
"e+	c #FFFFFF",
"f+	c #FFFFFF",
"g+	c #FFFFFF",
"h+	c #FFFFFF",
"i+	c #FFFFFF",
"j+	c #FFFFFF",
"k+	c #FFFFFF",
"l+	c #FFFFFF",
"m+	c #FFFFFF",
"n+	c #FFFFFF",
"o+	c #FFFFFF",
"p+	c #FFFFFF",
"q+	c #FFFFFF",
"r+	c #FFFFFF",
"s+	c #FFFFFF",
"t+	c #FFFFFF",
"u+	c #FFFFFF",
"v+	c #FFFFFF",
"w+	c #FFFFFF",
"x+	c #FFFFFF",
"y+	c #FFFFFF",
"z+	c #FFFFFF",
"A+	c #FFFFFF",
"B+	c #FFFFFF",
"C+	c #FFFFFF",
"D+	c #FFFFFF",
"E+	c #FFFFFF",
"F+	c #FFFFFF",
"G+	c #FFFFFF",
"H+	c #FFFFFF",
"                            : :         ",
"                            : 6 c       ",
"                            : / a c     ",
"                      t 0 0 < / 7 a c   ",
"                    8 - & ; { / 7 h g 2 ",
"                  : - ~ 1 1 4 / 7 a 2   ",
"q q q q o o     w ^ ^ 2 ....c / a 2 ..%.",
"q Y #.#. .F B   : $ : ..%.  : 5 2 ..%.  ",
"q #.#.@.+.Z D n 1 # : l l k c 2 ..%.    ",
"p +.+.+.` Z Y W t ' x Q P N } ..%.      ",
"o  .Z Z Y W U S b 2 y M L J } %.        ",
"o Y W W E . . @ @ @ @ @ = = = > > , ] u ",
"n U S R . I w w w w w w w w w w w w ]   ",
"n Q P C f w w w w w w w w w w w w ] ..%.",
"m M L @ w w w w w w w w w w w w j s ..  ",
"m H r z w w w w w w w w w w w w ] ..%.  ",
"l F ) w w w w w w w w w w w w ( ..%.    ",
"l 3 e w w w w w w w w w w w v j ..      ",
"k @ @ @ = = > > , ] ] ] ] ( | ..&.      ",
"  ............................&.        "};
