/* XPM */
static char *SaveJob_xpm[] = {
/* width height num_colors chars_per_pixel */
"    19    19      256            2",
/* colors */
"`` c #000000",
"`. c #605732",
"`# c #5e5531",
"`a c #5c5430",
"`b c #626870",
"`c c #8b897f",
"`d c #39341e",
"`e c #36311c",
"`f c #322e1a",
"`g c #867f72",
"`h c #bdb9cc",
"`i c #5a522f",
"`j c #43484d",
"`k c #ffffff",
"`l c #9a8f97",
"`m c #59534b",
"`n c #2c2817",
"`o c #5f5632",
"`p c #bcb8ca",
"`q c #bbb6c8",
"`r c #80796c",
"`s c #5d554d",
"`t c #948890",
"`u c #91848b",
"`v c #292516",
"`w c #5d5431",
"`x c #b9b5c6",
"`y c #b7b2c3",
"`z c #b5b0c0",
"`A c #a8a8a8",
"`B c #858585",
"`C c #92868d",
"`D c #8f8288",
"`E c #8b7e83",
"`F c #262314",
"`G c #5b5330",
"`H c #b6b1c2",
"`I c #b4aebe",
"`J c #b2abbb",
"`K c #8d8085",
"`L c #897c80",
"`M c #86777b",
"`N c #232013",
"`O c #59512f",
"`P c #b3acbc",
"`Q c #b0aab9",
"`R c #aea6b5",
"`S c #87797d",
"`T c #847578",
"`U c #807173",
"`V c #211e11",
"`W c #574f2e",
"`X c #afa8b6",
"`Y c #aca5b3",
"`Z c #a9a1ae",
"`0 c #827375",
"`1 c #7e6e70",
"`2 c #7b6a6a",
"`3 c #1e1b10",
"`4 c #554d2c",
"`5 c #aaa3b0",
"`6 c #a89fac",
"`7 c #a59ca8",
"`8 c #7c6c6d",
".` c #796868",
".. c #766463",
".# c #1b190e",
".a c #524b2b",
".b c #a69da9",
".c c #a39aa5",
".d c #a096a0",
".e c #9d929c",
".f c #998e97",
".g c #968a92",
".h c #93868d",
".i c #8c7e83",
".j c #887a7e",
".k c #857679",
".l c #817274",
".m c #7e6e6f",
".n c #7a6a6a",
".o c #776665",
".p c #746260",
".q c #705e5b",
".r c #18160d",
".s c #50492a",
".t c #a198a2",
".u c #9e949e",
".v c #9b9099",
".w c #978c94",
".x c #94888f",
".y c #91848a",
".z c #8a7c80",
".A c #86787b",
".B c #837476",
".C c #7f6f71",
".D c #7c6b6c",
".E c #786767",
".F c #756362",
".G c #725f5d",
".H c #6e5b58",
".I c #6b5753",
".J c #16140b",
".K c #4e4629",
".L c #9c929b",
".M c #998e96",
".N c #695550",
".O c #66514c",
".P c #13120a",
".Q c #4b4427",
".R c #978b93",
".S c #93878e",
".T c #644f49",
".U c #614c45",
".V c #110f09",
".W c #484226",
".X c #91858b",
".Y c #8e8186",
".Z c #5f4a42",
".0 c #5d463e",
".1 c #0f0d08",
".2 c #463f25",
".3 c #8c7f84",
".4 c #897b7e",
".5 c #5b443b",
".6 c #584138",
".7 c #0c0b07",
".8 c #433d23",
"#` c #87787b",
"#. c #573f35",
"## c #543d32",
"#a c #0a0905",
"#b c #403a22",
"#c c #817273",
"#d c #7e6d6e",
"#e c #533b30",
"#f c #51382c",
"#g c #080804",
"#h c #3d3820",
"#i c #7c6b6b",
"#j c #786766",
"#k c #50372b",
"#l c #4e3428",
"#m c #060603",
"#n c #3a351f",
"#o c #51473a",
"#p c #4e4437",
"#q c #251a13",
"#r c #231811",
"#s c #050402",
"#t c #342f1b",
"#u c #312c1a",
"#v c #070604",
"#w c #050503",
"#x c #000000",
"#y c #000000",
"#z c #000000",
"#A c #000000",
"#B c #000000",
"#C c #000000",
"#D c #000000",
"#E c #000000",
"#F c #000000",
"#G c #000000",
"#H c #000000",
"#I c #000000",
"#J c #000000",
"#K c #000000",
"#L c #000000",
"#M c #000000",
"#N c #000000",
"#O c #000000",
"#P c #000000",
"#Q c #000000",
"#R c #000000",
"#S c #000000",
"#T c #000000",
"#U c #000000",
"#V c #000000",
"#W c #000000",
"#X c #000000",
"#Y c #000000",
"#Z c #000000",
"#0 c #000000",
"#1 c #000000",
"#2 c #000000",
"#3 c #000000",
"#4 c #000000",
"#5 c #000000",
"#6 c #000000",
"#7 c #000000",
"#8 c #000000",
"a` c #000000",
"a. c #000000",
"a# c #000000",
"aa c #000000",
"ab c #000000",
"ac c #000000",
"ad c #000000",
"ae c #000000",
"af c #000000",
"ag c #000000",
"ah c #000000",
"ai c #000000",
"aj c #000000",
"ak c #000000",
"al c #000000",
"am c #000000",
"an c #000000",
"ao c #000000",
"ap c #000000",
"aq c #000000",
"ar c #000000",
"as c #000000",
"at c #000000",
"au c #000000",
"av c #000000",
"aw c #000000",
"ax c #000000",
"ay c #000000",
"az c #000000",
"aA c #000000",
"aB c #000000",
"aC c #000000",
"aD c #000000",
"aE c #000000",
"aF c #000000",
"aG c #000000",
"aH c #000000",
"aI c #000000",
"aJ c #000000",
"aK c #000000",
"aL c #000000",
"aM c #000000",
"aN c #000000",
"aO c #000000",
"aP c #000000",
"aQ c #000000",
"aR c #000000",
"aS c #000000",
"aT c #000000",
"aU c #000000",
"aV c #000000",
"aW c #000000",
"aX c #000000",
"aY c #000000",
"aZ c #000000",
"a0 c #000000",
"a1 c #000000",
"a2 c #000000",
"a3 c #000000",
"a4 c #000000",
"a5 c #000000",
"a6 c #000000",
"a7 c #000000",
"a8 c #000000",
/* pixels */
"```.`#`a`b`c`c`c`c`c`c`c`c`c`b`d`e`f``",
"`.`g`h`i`j`k`k`k`k`k`````k`k`j`e`l`m`n",
"`o`p`q`r`j`k`k`k`k`k`````k`k`j`s`t`u`v",
"`w`x`y`z`j`A`B`k`k`k`````k`k`j`C`D`E`F",
"`G`H`I`J`j`B```k`k`k`````k`k`j`K`L`M`N",
"`O`P`Q`R`j`k`k`k`k`k`````k`k`j`S`T`U`V",
"`W`X`Y`Z`j`k`k`k`k`k`k`k`k`k`j`0`1`2`3",
"`4`5`6`7`j`j`j`j`j`j`j`j`j`j`j`8.`...#",
".a.b.c.d.e.f.g.h`D.i.j.k.l.m.n.o.p.q.r",
".s.t.u.v.w.x.y`K.z.A.B.C.D.E.F.G.H.I.J",
".K.L.M`k`k`k`k`k`k`k`k`k`k`k`k`k.N.O.P",
".Q.R.S`k`k`c`c`c`c`c`c`c`c`c`k`k.T.U.V",
".W.X.Y`k`k`k`k`k`k`k`k`k`k`k`k`k.Z.0.1",
".2.3.4`k`k`c`c`c`c`c`c`c`c`c`k`k.5.6.7",
".8#`.B`k`k`k`k`k`k`k`k`k`k`k`k`k#.###a",
"#b#c#d`k`k`c`c`c`c`c`c`c`c`c`k`k#e#f#g",
"#h#i#j`k`k`k`k`k`k`k`k`k`k`k`k`k#k#l#m",
"#n#o#p`k`k`k`k`k`k`k`k`k`k`k`k`k#q#r#s",
"``#t#u``````````````````````````#v#w``"
};
