#define x_width 83
#define x_height 25
static char x_bits[] = {
0x00, 0x00, 0x00, 0x00, 0x00, 0x00, 0x00, 0x00, 0x00, 0x00, 0xf8, 
0x00, 0x00, 0x00, 0x00, 0x00, 0x00, 0x00, 0x00, 0x00, 0x00, 0xf8, 
0x00, 0x00, 0x00, 0x00, 0x00, 0x00, 0x00, 0x00, 0x00, 0x00, 0xf8, 
0x00, 0x00, 0x00, 0x00, 0x00, 0x00, 0x00, 0x00, 0x00, 0x00, 0xf8, 
0x00, 0x00, 0x00, 0x86, 0x01, 0x00, 0x00, 0xc0, 0x00, 0x00, 0xf8, 
0x60, 0xfe, 0x07, 0x86, 0x01, 0x00, 0x00, 0x80, 0x01, 0x00, 0xf8, 
0xc0, 0x66, 0xe6, 0xbf, 0x1f, 0xff, 0x0f, 0xfe, 0x7f, 0x00, 0xf8, 
0xc0, 0x66, 0x06, 0xc6, 0x0c, 0x30, 0x0c, 0x06, 0x00, 0x00, 0xf8, 
0x00, 0xfe, 0xc6, 0xff, 0x0d, 0x30, 0x0c, 0xe6, 0x1f, 0x00, 0xf8, 
0x00, 0x66, 0xc6, 0xb6, 0x0d, 0x30, 0x0c, 0x06, 0x0c, 0x00, 0xf8, 
0xf0, 0x66, 0xc6, 0xbf, 0x07, 0x30, 0x0c, 0x86, 0x06, 0x38, 0xf8, 
0xc0, 0xfe, 0x87, 0x1f, 0x03, 0x30, 0x0c, 0x06, 0x03, 0x38, 0xf8, 
0xc0, 0x06, 0xc6, 0xb6, 0x07, 0x30, 0x0c, 0xfe, 0x7f, 0x00, 0xf8, 
0xc0, 0xfe, 0x66, 0xc6, 0x1c, 0x18, 0x0c, 0x06, 0x63, 0x00, 0xf8, 
0xc0, 0x9e, 0x07, 0x00, 0x00, 0x18, 0x0c, 0x06, 0x33, 0x00, 0xf8, 
0xc0, 0x9f, 0xc6, 0xff, 0x0f, 0x0c, 0x0c, 0x06, 0x03, 0x00, 0xf8, 
0xc0, 0xff, 0x07, 0x30, 0x00, 0x0c, 0x0c, 0x03, 0x03, 0x38, 0xf8, 
0xc0, 0x06, 0x06, 0xf3, 0x07, 0x06, 0x0c, 0x03, 0x03, 0x38, 0xf8, 
0x00, 0x86, 0x06, 0x33, 0x00, 0x83, 0x86, 0x41, 0x03, 0x00, 0xf8, 
0x00, 0x03, 0xe3, 0xff, 0x9f, 0x01, 0x03, 0x80, 0x01, 0x00, 0xf8, 
0x00, 0x00, 0x00, 0x00, 0x00, 0x00, 0x00, 0x00, 0x00, 0x00, 0xf8, 
0x00, 0x00, 0x00, 0x00, 0x00, 0x00, 0x00, 0x00, 0x00, 0x00, 0xf8, 
0x00, 0x00, 0x00, 0x00, 0x00, 0x00, 0x00, 0x00, 0x00, 0x00, 0xf8, 
0x00, 0x00, 0x00, 0x00, 0x00, 0x00, 0x00, 0x00, 0x00, 0x00, 0xf8, 
0x00, 0x00, 0x00, 0x00, 0x00, 0x00, 0x00, 0x00, 0x00, 0x00, 0xf8, 
}; 
