/* XPM */ 
static char * ccd_xpm[] = {
"269 38 17 1",
" 	c None",
"!	c #004080",
"#	c #683C80",
"$	c #7C3A80",
"%	c #9A3680",
"&	c #A73480",
"'	c #8C3880",
"(	c #B23180",
")	c #E91F80",
"*	c #FF0080",
"+	c #F81380",
",	c #C72C80",
"-	c #BD2F80",
".	c #F01A80",
"0	c #E12380",
"1	c #D02A80",
"2	c #D92680",
"!!!!!!!!!!!!!!!!!!!!!!!!!!!!!!!!!!!!!!!!!!!!!!!!!!!!!!!!!!!!!!!!!!!!!!!!!!!!!!!!!!!!!!!!!!!!!!!!!!!!!!!!!!!!!!!!!!!!!!!!!!!!!!!!!!!!!!!!!!!!!!!!!!!!!!!!!!!!!!!!!!!!!!!!!!!!!!!!!!!!!!!!!!!!!!!!!!!!!!!!!!!!!!!!!!!!!!!!!!!!!!!!!!!!!!!!!!!!!!!!!!!!!!!!!!!!!!!!!!!!!!!!!!!!!",
"!!!!!!!!!!!!!!!!!!!!!!!!!!!!!!!!!!!!!!!!!!!!!!!!!!!!!!!!!!!!!!!!!!!!!!!!!!!!!!!!!!!!!!!!!!!!!!!!!!!!!!!!!!!!!!!!!!!!!!!!!!!!!!!!!!!!!!!!!!!!!!!!!!!!!!!!!!!!!!!!!!!!!!!!!!!!!!!!!!!!!!!!!!!!!!!!!!!!!!!!!!!!!!!!!!!!!!!!!!!!!!!!!!!!!!!!!!!!!!!!!!!!!!!!!!!!!!!!!!!!!!!!!!!!!",
"!!!!!!!!!!!!!!!!!!!!!!!!!!!!!!!!!!!!!!!!!!!!!!!!!!!!!!!!!!!!!!!!!!!!!!!!!!!!!!!!!!!!!!!!!!!!!!!!!!!!!!!!!!!!!!!!!!!!!!!!!!!!!!!!!!!!!!!!!!!!!!!!!!!!!!!!!!!!!!!!!!!!!!!!!!!!!!!!!!!!!!!!!!!!!!!!!!!!!!!!!!!!!!!!!!!!!!!!!!!!!!!!!!!!!!!!!!!!!!!!!!!!!!!!!!!!!!!!!!!!!!!!!!!!!",
"!!!!!!!!!!!!!!!!!!!!!!!!!!!!!!!!!!!!!!!!!!!!!!!!!!!!!!!!!!!!!!!!!!!!!!!!!!!!!!!!!!!!!!!!!!!!!!!!!!!!!!!!!!!!!!!!!!!!!!!!!!!!!!!!!!!!!!!!!!!!!!!!!!!!!!!!!!!!!!!!!!!!!!!!!!!!!!!!!!!!!!!!!!!!!!!!!!!!!!!!!!!!!!!!!!!!!!!!!!!!!!!!!!!!!!!!!!!!!!!!!!!!!!!!!!!!!!!!!!!!!!!!!!!!!",
"!!!!!!!!!!!!!!!!!!!!!!!!!!!!!!!!!!!!!!!!!!!!!!!!!!!!!!!!!!!!!!!!!!!!!!!!!!!!!!!!!!!!!!!!!!!!!!!!!!!!!!!!!!!!!!!!!!!!!!!!!!!!!!!!!!!!!!!!!!!!!!!!!!!!!!!!!!!!!!!!!!!!!!!!!!!!!!!!!!!!!!!!!!!!!!!!!!!!!!!!!!!!!!!!!!!!!!!!!!!!!!!!!!!!!!!!!!!!!!!!!!!!!!!!!!!!!!!!!!!!!!!!!!!!!",
"!!!!!!!!!!!!!!!!!!!!!!!!!!!!!!!!!!!!!!!!!!!!!!!!!!!!!!!!!!!!!!!!!!!!!!#$!!!!!!!!!!%&!!!!!!!!!!!!!!!!!!!!!!!!!!!!!!!!!!!!!!!!!!!!!!!!!!!!!!!!!!!!!!!!!!!!!!!!!!!!!!!!!!!!!!!!!!!!!!!!!!!!!''!!!!!##!!!!!!!!!!!!!!!!!!!%(#!!!!!!!!&(!!!!!!!!!!!!!!!!!!!!!!!!!!!!!!!!!!!!!!!!!!!",
"!!!!!!!!!!!)*$!!!!!!!!!)+$!!!!!!!!!!!!!!!!!!!!!!!!!!!!!!!!$,&!!!!!!!!!-**(!!!!!!!!.**'!!!!!!!!!!!!!!!!!!!!!!!-*0#!!!!!!!!!!!!!!!!!!!!!!!!!!!!!!!!!!!!!!!!!!!!!!!!!!!!!!!!!!!!!!!!!!!!!!!!**+$!!!-**-!!!!!!!!!!!!!!!!!0**1!!!!!!!***(!!!!!!!!!!!!!!!!!!!!!!!!!!!!!!!!!!!!!!!!!",
"!!!!!!!!!!!***************$!!!!!!!!!(+***********************&!!!!!!!!0**!!!!!!!!'***$!!!!!!!!!!!!!!!!!!!!!!!-**)!!!!!!!!!!!!!!!!!!!!!!!!!!!!!!!!!!!!!!!!!!!!!!!!!!!!!!!!!!!!!!!!!!!!!!!!**.!!!!-**&!!!!!!!!!!!!!!!!!0**!!!!!!!!**)!!!!!!!!!!!!!!!!!!!!!!!!!!!!!!!!!!!!!!!!!!",
"!!!!!!!!!!!+*0!!!!!!!!-**%!!!!!!!!!!$-,--------)***----------'!!!!!!!!+*1!!!!!!!!0**+0!!!!!!!!!!!!!!!!!!!!!!!-**'!!!!!!!!!!!!!!!!!!!!!!!!!!!!!!!!!!!!!!!!!!!!!!!!!!!!!!!!!!!!!!!!!!!!!!!!**0!!!!-**'!!!.*1!!!!!!!!!!!0**!!!!!!!!**0!!!!!!!!!!!!!!!!#,***2#!!!!!!!!!!!!!!!!!!!",
"!!!!!!!!!!!0*0!!!!!!!!-**'!!!!!!!!!!!!!!!!!!!!!***#!!!!!!!!!!!!!!!!!!$**%!!,-!!!%**-(*1!!!!!!!!!!!!!!(,#!!!!!-**'!!!!'.0#!!!!!!!!!!!!!!!!!!!!!!!!!!!!!!!!!!!!!!!!!!!!!!!!!!!!!!!!1***********************2$!!!!!!!!!!0**!!!!!!!!**0!!!!!!!!!!!!!!!&**%#)**&!!!!!!!!!!!!!!!!!!",
"!!!!!!!!!!!0*0!!!!!!!!-**'!!!!!!!!!!!!!!!!!!!!)***1!!!!!!!!!!!!!!!(+*********1!!**0!!)*1!!!!!!!!!!!!!0**-!!!!-**'!!!!'***!!!!!!!!!!!&******+(!!!!!!!&******+(!!*********&!!!!!!!!!!!!!!!!**0!!!!-**'!!!!!!!!!!!!!!!!!0**!!!!!!!!**0!!!!!!!!!!!!!!'*+!!!!.**'!!!!!!!!!!!!!!!!!",
"!!!!!!!!!!!0*************'!!!!!!!!!!!!!!!!!!!1*****#!!!!!!!!!!!!!!$(&+*1!!!!!!!0*.!!!#**0!!!!!!!!!!!!0**!!!!!-**'!!!!'**-!!!!!!!!!!.**(!#1**+!!!!!!.**(!#1**+!!!#***$!(***$!!!!!!!!!!!!!!**1!!!!-**'!!!!!!!!!!!!!!!!!0**!)+$!!!!**0!!!.*1!!!!!!!!2*,!!!!&**2!!!!!!!!!!!!!!!!!",
"!!!!!!!!!!!0*0!!!!!!!!-**'!!!!!!!!!!!!!!!!!!1**&**.0**2$!!!!!!!!!!!!#**%!!!!!!1**$!!!!1***&!!!!!!!!!!0**!!!!!-**'!!!!'**-!!!!!!!!!.**$!!!!$**%!!!!.**$!!!!$**%!!!***!!!!.**$!!!!!!!!!!!!!%&!!!!!'&#!!!!!!!!!!!!!0************************'!!!!!!!***&!!!'**0!!!!!!!!!!!!!!!!!",
"!!!!!!!!!!!0*0!!!!!!!!-**'!!!!!!!!!!!!!!!!!1**&!**0!!,***+%!!!!!!!!!(*.&0(!!!1**0************&!!!!!!!0**!!!!!-**'!!!!'**-!!!!!!!!-**&!!!!!!(*1!!!-**&!!!!!!(*1!!!***!!!!!**)!!!!!!!!!!!!!!2*0#!-**%!!!!!!!!!!!!!!!!!#***!!!!!!!1***'!!!!!!!!!!!!!,**'!!!,**,!!!!!!!!!!!!!!!!!",
"!!!!!!!!!!!0*0!!!!!!!!-**'!!!!!!!!!!!!!!!!)**$!!**0!!!!-****(!!!!!!!)*,'**,!.*-!'%!!!!!!#0**+'!!!!!!!0**!!!!!-**'!!!!'**-!!!!!!!!**.!!!!!!!!22!!!**.!!!!!!!!22!!!***!!!!!1**%!!!!!!!!!!!!!0**#!-**$!!!!-,!!!!!!!!!!!%***!!!!!!!+***,!!!!!!!!!!!!!!!!!!!#***#!!!!!!!!!!!!!!!!!",
"!!!!!!!!!!!**************'!!!!!!!!!!!!!!$**)!!!!**0!!!!!!0***&!!!!!#**$'**-+)#!!!!!!!!!!!!#$!!!!!!!!!0**!!!!!-**'!!!!'**-!!!!!!!(**,!!!!!!!!!!!!(**,!!!!!!!!!!!!!***!!!!!%**1!!!!!%-------**0!!-**----.**.!!!!!!!!!!1***!!!!!!%****2!!!!!!!!!!!!!!!!!!!)**&!!!!!!!!!!!!!!!!!!",
"!!!!!!!!!!!**2!!!!!!!!-**#!!!!!!!!!!!!!-**(!!!!!**0!!!!!!!%**0!!!!!2*)!'**&#')1!!$**$!!!!0*%!!!!!!!!!0**!!!!!-**'!!!!'**-!!!!!!!2**'!!!!!!!!!!!!2**'!!!!!!!!!!!!!***!!!!!$**0!!!!!(2------**0!!-**-------&#!!!!!!!!!+***)#!!!!1****)'!!!!!!!!!!!!!!!!!1**&!!!!!!!!!!!!!!!!!!!",
"!!!!!!!!!!!-,!!!!!!!!!##!!!)+$!!!!!!!$**2!!!!!!!**0!!!!!!!!$,&!!!!(**.-2****.*******,-0'!)**$!!!!!!!$*******************-!!!!!!!.**#!!!!!!!!!!!!.**#!!!!!!!!!!!!!***!!!!!!***!!!!!!!!!!!!!0*0!!-**!!!!!!!!!!!!!!!!!%******&!!!*****+1!!!!!!!!!!!!!!!!'**-!!!!!!!!!!!!!!!!!!!!",
"!!!!!$(-------------------****$!!!!!2*0#!!!!!!!!**0!!!!!!!!!!!!!!!!.*2-2**2-,**'!'**!0**#0*-!!!!!!!!!%2&!!!!!-**'!!!!'**,!!!!!!!***!!!!!!!!!!!!!***!!!!!!!!!!!!!!***!!!!!!***!!!!!!!!!!!!!0*0!!-**!!!!!!!!!!!!!!!!!1****2**(!-****0+*#!!!!!!!!!!!!!!!1*.!!!!!!!!!!!!!!!!!!!!!",
"!!!!!$0*),-------***---------($!!!!!#!!!!&1'!!!#-(!!!!!)+$!!!!!!!!!!!!!'**'!'**'!'**!0*0!0*-!!!!!!!!!!!!!!!!!-**'!!!!!$#!!!!!!!!***!!!!!!!!!!!!!***!!!!!!!!!!!!!!***!!!!!!***!!!!!!!!!!!!!0*0!!-**!!!!)+$!!!!!!!!!!*****#**0!**&**01*0!!!!!!!!!!!!!!!0*(!!!!!!!!!!!!!!!!!!!!!",
"!!!!!!!!!!!-,!!!!**0!!!!!!!!!!!!!!!!!!!!!-****************!!!!!!!!!!!!!'**'!#*******!-*0!0*-!!!!!!!!(,#!!!!!!-**'!!!!!!##!!!!!!!***!!!!!!!!!!!!!***!!!!!!!!!!!!!!***!!!!!!***!!!!!!0********0!!-********0!!!!!!!!!-*+)**!2*--*0!**0$**%!!!!!!!!!!!!!!0+$!!!!!!!!!!!!!!!!!!!!!",
"!!!!!!!!!!$***%!!**0!!!!!!!!!!!!!!!!!!!!!-**'!!!!!!!!!'**,!!!!!!!!!!!!!'**'!!**2-2**!-*0!0*-!!!!!!!!2**,!!!!!-**'!!!!!!**2!!!!!!+**!!!!!!!!!!!!!+**!!!!!!!!!!!!!!***!!!!!!**.!!!!!!!!!!!!!0*0!!-**!!!!!!!!!!!!!!!!**%0**!!!#**#!**0!0**$!!!!!!!!!!!!!--!!!!!!!!!!!!!!!!!!!!!!",
"!!!!!!!!!!&**2!!!**0!!!!!&*.!!!!!!!!!!!!!-**'!!!!!!!!!'**-!!!!!!!!!!!!!'**-02**'!'**!-*0!0*-!!!!!!!!-**!!!!!!-**'!!!!!!**)!!!!!!0**'!!!!!!!!!!!!0**'!!!!!!!!!!!!!***!!!!!'**0!!!!!!!!!!!!!0*0!!-**!!!!!!!!!!!!!!!-*2!0**!!!0*&!!**0!'**+!!!!!!!!!!!!!!!!!!!!!!!!!!!!!!!!!!!!!",
"!!!!!!!!!!2**#!!!***********.!!!!!!!!!!!!-**'!!!!!!!!!'**-!!!!!!!!!!!!'.***0$**'!'**!-*0!0*-!!!!!!!!-**!!!!!!-**'!!!!!!**-!!!!!!,**&!!!!!!!!11!!,**&!!!!!!!!11!!!***!!!!!&**-!!!!!!!!!!!!!0*0!!-**!!!!!!'$!!!!!!#**!!0**!!-*1!!!**0!!1***$!!!!!!!!!!#1.&!!!!!!!!!!!!!!!!!!!!!",
"!!!!!!!!!!**0!!!!**0!!!!!!!!!!!!!!!!!!!!!-**'!!!!!!!!!'**-!!!!!!!!')******'!!*******!,*0!0*-!!!!!!!!-**!!!!!!-**'!!!!!!**-!!!!!!%**1!!!!!!!$)1!!%**1!!!!!!!$)1!!!***!!!!!2**#!!!!!!!!!!!!!0*0!!-**!!!!!.**$!!!!!2.$!!0**!'+2!!!!**0!!!****&!!!!!!!!!****-!!!!!!!!!!!!!!!!!!!!",
"!!!!!!!!!-***&!!!**0!!!!!!!!!!!!!!!!!!!!!-**'!!!!!!!!!'**-!!!!!!!!!***&'**'!!**'!'**!0*0!0*-!!!!!!!!-**!!!!!!-**'!!!!!!**-!!!!!!!.**#!!!!!!2+'!!!.**#!!!!!!2+'!!!***!!!!#**0!!!!!1**********0!!-*********+(!!!!()&!!!0**$+)!!!!!**0!!!'**,$!!!!!!!!'****0!!!!!!!!!!!!!!!!!!!!",
"!!!!!!!!!**21*-!!**0!!!!!!!!!!!!!!!!!!!!!-**'!!!!!!!!!'**-!!!!!!!!!''!!'**'!!**'!'**!0*2!0*-!!!!!!!!-**!!!!!!-**'!!!!!!**-!!!!!!!'**2!!!!!&+,!!!!'**2!!!!!&+,!!!!***!!!!.**#!!!!!!!!!!!!!!0*0!!-**'!!!!!!!!!!!!!!!!!!0**((!!!!!!**0!!!!!!!!!!!!!!!!!.***%!!!!!!!!!!!!!!!!!!!!",
"!!!!!!!!,*+!!1**&**0!!!!!!!!!!!!!!!!!!!!!-**2---------2**-!!!!!!!!!!!!!'**'!'**'!'**!$$!!0*-!!!!!!!!-**!!!!!!-**'!!!!!!**-!!!!!!!!&***%!$.*1!!!!!!&***%!$.*1!!!!#***$#1***$!!!!!!!!!!!!!!!0*0!!-**'!!!!!!!!!!!!!!!!!!0**!!!!!!!!**0!!!!!!!!!!!!!!!!!!&-$!!!!!!!!!!!!!!!!!!!!!",
"!!!!!!!%**$!!!(*****$!!!!!!!!!!!!!!!!!!!!-**2---------2**-!!!!!!!!!!!!!'**'!'**'!'**!!!!!0*-!!!!!!!!2**!!!!!!-**'!!!!!!**-!!!!!!!!!#2*****&!!!!!!!!#2*****&!!!!*********&!!!!!!!!!!!!!!!!!0*0!!-**'!!!!!!!!!!!!!!!!!!0**!!!!!!!!**0!!!!!!!!!!!!!!!!!!!!!!!!!!!!!!!!!!!!!!!!!!",
"!!!!!!$**$!!!!!!-**************&!!!!!!!!!-**'!!!!!!!!!'**-!!!!!!!!!!!!!%**'!'**'!%**!%)****-!!!!!!!#+********************2!!!!!!!!!!!!!!!!!!!!!!!!!!!!!!!!!!!!!!!!!!!!!!!!!!!!!!!!!!!!!!!!0*)!!-**'!!!!!!!!!!!!!!!!!!0**!!!!!!!!**0!!!!!!!!!!!!!!!!!!!!!!!!!!!!!!!!!!!!!!!!!!",
"!!!!!$+.#!!!!!!!!!#-+********,!!!!!!!!!!!-**#!!!!!!!!!$,&!!!!!!!!!!!!!!-**'!'**,****!!$.***&!!!!!!!!!'$!!!!!!!!!!!!!!!!**0!!!!!!!!!!!!!!!!!!!!!!!!!!!!!!!!!!!!!!!!!!!!!!!!!!!!!!!!!!!!!!!!0**!!-**'!!!!!!!!!!!!!!!!!!0**!!!!!!!!**0!!!!!!!!!!!!!!!!!!!!!!!!!!!!!!!!!!!!!!!!!!",
"!!!!#,(!!!!!!!!!!!!!!!!!!#&-%!!!!!!!!!!!!$$!!!!!!!!!!!!!!!!!!!!!!!!!!!!-*)#!'*.#!2*&!!!!,*-!!!!!!!!!!!!!!!!!!!!!!!!!!!!%%!!!!!!!!!!!!!!!!!!!!!!!!!!!!!!!!!!!!!!!!!!!!!!!!!!!!!!!!!!!!!!!!!1*&!!&0&!!!!!!!!!!!!!!!!!!!2*-!!!!!!!!.*%!!!!!!!!!!!!!!!!!!!!!!!!!!!!!!!!!!!!!!!!!!",
"!!!!!!!!!!!!!!!!!!!!!!!!!!!!!!!!!!!!!!!!!!!!!!!!!!!!!!!!!!!!!!!!!!!!!!!!!!!!!!!!!!!!!!!!!!!!!!!!!!!!!!!!!!!!!!!!!!!!!!!!!!!!!!!!!!!!!!!!!!!!!!!!!!!!!!!!!!!!!!!!!!!!!!!!!!!!!!!!!!!!!!!!!!!!!!!!!!!!!!!!!!!!!!!!!!!!!!!!!!!!!!!!!!!!!!!!!!!!!!!!!!!!!!!!!!!!!!!!!!!!!!!!!!!!!",
"!!!!!!!!!!!!!!!!!!!!!!!!!!!!!!!!!!!!!!!!!!!!!!!!!!!!!!!!!!!!!!!!!!!!!!!!!!!!!!!!!!!!!!!!!!!!!!!!!!!!!!!!!!!!!!!!!!!!!!!!!!!!!!!!!!!!!!!!!!!!!!!!!!!!!!!!!!!!!!!!!!!!!!!!!!!!!!!!!!!!!!!!!!!!!!!!!!!!!!!!!!!!!!!!!!!!!!!!!!!!!!!!!!!!!!!!!!!!!!!!!!!!!!!!!!!!!!!!!!!!!!!!!!!!!",
"!!!!!!!!!!!!!!!!!!!!!!!!!!!!!!!!!!!!!!!!!!!!!!!!!!!!!!!!!!!!!!!!!!!!!!!!!!!!!!!!!!!!!!!!!!!!!!!!!!!!!!!!!!!!!!!!!!!!!!!!!!!!!!!!!!!!!!!!!!!!!!!!!!!!!!!!!!!!!!!!!!!!!!!!!!!!!!!!!!!!!!!!!!!!!!!!!!!!!!!!!!!!!!!!!!!!!!!!!!!!!!!!!!!!!!!!!!!!!!!!!!!!!!!!!!!!!!!!!!!!!!!!!!!!!",
"!!!!!!!!!!!!!!!!!!!!!!!!!!!!!!!!!!!!!!!!!!!!!!!!!!!!!!!!!!!!!!!!!!!!!!!!!!!!!!!!!!!!!!!!!!!!!!!!!!!!!!!!!!!!!!!!!!!!!!!!!!!!!!!!!!!!!!!!!!!!!!!!!!!!!!!!!!!!!!!!!!!!!!!!!!!!!!!!!!!!!!!!!!!!!!!!!!!!!!!!!!!!!!!!!!!!!!!!!!!!!!!!!!!!!!!!!!!!!!!!!!!!!!!!!!!!!!!!!!!!!!!!!!!!!",
"!!!!!!!!!!!!!!!!!!!!!!!!!!!!!!!!!!!!!!!!!!!!!!!!!!!!!!!!!!!!!!!!!!!!!!!!!!!!!!!!!!!!!!!!!!!!!!!!!!!!!!!!!!!!!!!!!!!!!!!!!!!!!!!!!!!!!!!!!!!!!!!!!!!!!!!!!!!!!!!!!!!!!!!!!!!!!!!!!!!!!!!!!!!!!!!!!!!!!!!!!!!!!!!!!!!!!!!!!!!!!!!!!!!!!!!!!!!!!!!!!!!!!!!!!!!!!!!!!!!!!!!!!!!!!",
"!!!!!!!!!!!!!!!!!!!!!!!!!!!!!!!!!!!!!!!!!!!!!!!!!!!!!!!!!!!!!!!!!!!!!!!!!!!!!!!!!!!!!!!!!!!!!!!!!!!!!!!!!!!!!!!!!!!!!!!!!!!!!!!!!!!!!!!!!!!!!!!!!!!!!!!!!!!!!!!!!!!!!!!!!!!!!!!!!!!!!!!!!!!!!!!!!!!!!!!!!!!!!!!!!!!!!!!!!!!!!!!!!!!!!!!!!!!!!!!!!!!!!!!!!!!!!!!!!!!!!!!!!!!!!"};