/* XPM */ 
static char * noccd_xpm[] = {
"315 38 17 1",
" 	c None",
"!	c #0000FF",
"#	c #7C00E9",
"$	c #D9009A",
"%	c #C700B2",
"&	c #B200C7",
"'	c #A700D0",
"(	c #6800F0",
")	c #BD00BD",
"*	c #FF0000",
"+	c #D000A7",
",	c #E1008C",
"-	c #9A00D9",
".	c #8C00E1",
"0	c #E9007C",
"1	c #F8004D",
"2	c #F00068",
"!!!!!!!!!!!!!!!!!!!!!!!!!!!!!!!!!!!!!!!!!!!!!!!!!!!!!!!!!!!!!!!!!!!!!!!!!!!!!!!!!!!!!!!!!!!!!!!!!!!!!!!!!!!!!!!!!!!!!!!!!!!!!!!!!!!!!!!!!!!!!!!!!!!!!!!!!!!!!!!!!!!!!!!!!!!!!!!!!!!!!!!!!!!!!!!!!!!!!!!!!!!!!!!!!!!!!!!!!!!!!!!!!!!!!!!!!!!!!!!!!!!!!!!!!!!!!!!!!!!!!!!!!!!!!!!!!!!!!!!!!!!!!!!!!!!!!!!!!!!!!!!!!!!!!!!!!!!",
"!!!!!!!!!!!!!!!!!!!!!!!!!!!!!!!!!!!!!!!!!!!!!!!!!!!!!!!!!!!!!!!!!!!!!!!!!!!!!!!!!!!!!!!!!!!!!!!!!!!!!!!!!!!!!!!!!!!!!!!!!!!!!!!!!!!!!!!!!!!!!!!!!!!!!!!!!!!!!!!!!!!!!!!!!!!!!!!!!!!!!!!!!!!!!!!!!!!!!!!!!!!!!!!!!!!!!!!!!!!!!!!!!!!!!!!!!!!!!!!!!!!!!!!!!!!!!!!!!!!!!!!!!!!!!!!!!!!!!!!!!!!!!!!!!!!!!!!!!!!!!!!!!!!!!!!!!!!",
"!!!!!!!!!!!!!!!!!!!!!!!!!!!!!!!!!!!!!!!!!!!!!!!!!!!!!!!!!!!!!!!!!!!!!!!!!!!!!!!!!!!!!!!!!!!!!!!!!!!!!!!!!!!!!!!!!!!!!!!!!!!!!!!!!!!!!!!!!!!!!!!!!!!!!!!!!!!!!!!!!!!!!!!!!!!!!!!!!!!!!!!!!!!!!!!!!!!!!!!!!!!!!!!!!!!!!!!!!!!!!!!!!!!!!!!!!!!!!!!!!!!!!!!!!!!!!!!!!!!!!!!!!!!!!!!!!!!!!!!!!!!!!!!!!!!!!!!!!!!!!!!!!!!!!!!!!!!",
"!!!!!!!!!!!!!!!!!!!!!!!!!!!!!!!!!!!!!!!!!!!!!!!!!!!!!!!!!!!!!!!!!!!!!!!!!!!!!!!!!!!!!!!!!!!!!!!!!!!!!!!!!!!!!!!!!!!!!!!!!!!!!!!!!!!!!!!!!!!!!!!!!!!!!!!!!!!!!!!!!!!!!!!!!!!!!!!!!!!!!!!!!!!!!!!!!!!!!!!!!!!!!!!!!!!!!!!!!!!!!!!!!!!!!!!!!!!!!!!!!!!!!!!!!!!!!!!!!!!!!!!!!!!!!!!!!!!!!!!!!!!!!!!!!!!!!!!!!!!!!!!!!!!!!!!!!!!",
"!!!!!!!!!!!!!!!!!!!!!!!!!!!!!!!!!!!!!!!!!!!!!!#$%!!!!!!!!!!!!!!!!!!!!!!!!!!!!!!!!!!!!!!!!!!!!!!!!!!!!!!!!!!!!!!!!!!!!!!!!!!!!!!!!!!!!!!!!!!!&'!!!!!!!!!!!!!!!!!!!!!!!!!!!!!!!!!!!!!!!!!!!!!!!!!!!!!!!!!!!!!!!!!!!!!!!!##!!!!!!!!((!!!!!!!!!!!!!!!!()'!!!!!!!!!!!!!!!!!!!!!!!!!!!!!!!!!!!!!!!!!!!!!!!!!!!!!!!!!!!!!!!!!!!!!!",
"!!!!!!!!!!!!!!!!!%*+!!!!!!!!!!!!!!!!!!!!!!!!!!!,**(!!!!!!!!!!!!!!!!!!!!!!!!!!!!!!!!!!!!!!!!!!!!!!!!!#-(!!!!!!((!!!!!!.#!!!!!!!!!!!!!!!!!!!!.***-!!!!!!!!!!!!!!!!!!!!!!!!!!!!!!!!!!!!!!!!!!!!!!!!!!!!!!!!!!!!!!!!!!!!!!**0(!!!!!!,**'!!!!!!!!!!!!!!.**1!!!--!!!!!!!!!!#10!!!!!!!!!!!!!!!!!!!!!!!!!!!!!!!!!!!!!!!!!!!!!!!!!!!",
"!!!!!!(02#!!!!!!!!,**-!!!!!!!!!!!!!!!!!!!!!!!!!-**)!!!!!-'!!!!!!!!!!!!!!!!!!!!!!!!!!!!!!!!!!!!!!!!!!!2*$!!!!!)*********#!!!!!!!!!!!!!!!!!!!)**$!!!!!!!!!!!!!!!!!!!!!!!!!!!!!!!!!!!!!!!!!!!!!!!!!!!!!!!!!!!!!!!!!!!!!!#***&!!!!!!,**'!!!!!!!!!!!!!!.**-!!!,**************2!!!!!!!!!!!!!!!!!!!!!!!!!!!!!!!!!!!!!!!!!!!!!!!!!!",
"!!!!!!!&**)!!!!!!!!***-!!!!!!!!!!!!!!!.)))))))))**+))))$**1(!!!!!!!!!!!!!!!!!!!!!!!!!!!!!!!!!!!!!!!!!#***(!!!)**$)))***(!!!!!!!!!!!!!!!!!!!2**(!!!!!!!!#$)!!!!!!!!!!!!!!!!!!!!!!!!!!!!!!!!!!!!!!!!!!!!!!!!!!!!!!!!!!!'**,!!!!!!!,**!!!!!!!!!!!!!!!.**.!!!,*,!!!!!!!!!!!!!!!!!!!!!!!!!(!!!!!!!!!!!!!!!!!!!!!!!!!!!!!!!!!!!!!",
"!!!!!!!!,**'!!!!!!!)**)!!!!!!!!!!!!!!!-,$))***********%)))&#!!!!!!!!!!!!!!!!!!!!!!!!!!!!!!!!!!!!!!!!!!+**)!!!)**.!!!,*,!!!!!!!!!!!!!!!!!!!.**+!!!!!!!!#***+!!!!!!!!!!!!!!!!!!!!!!!!!!!!!!!!!!!!!!!!!!!!!!!!!!!!!!!!!!$**.!!!!!!!,**!!!!!!!!!!!!!!!.**.!!!,*,!!!!!!!!!!!!!!!!!!!!!!!-***(!!!!!!!!!!!!!!!!!!!!!!!!!!!!!!!!!!!",
"!!!!!!!!-**)!!!!!!!!1*(!!!!..!!!!!!!!!!!!!!-**#!!!!$**$!!!!!!!!!!!!!!!!!!!!!!!!!!!!!!!!!!!!!!!!!!!!!!!#**((.()**!!!!,*,!!!!!!!!!#1************************$#!!!!!!!'******1&!!!!!!!'******1&!!*********'!!!!!!!!!!!!!1*2!!!!!!!!,**!!!!!!!!!!!!!!!.**.!!!,*,!!!!!!!!!!!!!!!!!!!!!!!,***)!!!!!!!!!!!!!!!!!!!!!!!!!!!!!!!!!!!",
"!!!!!!!!!$2#..!!!!!!!!!!!!'**)!!!!!!!!!!!!!!1*$!!!(**)!!!!!((!!!!!!!!!!!!!!!!!!!!!!!!!!!!!!!!!!!!!!!!!!((!))!)**!!!!,*,!!!!!!!!!!!!!!!!!!-**%!!!!!!!!!!!!!!!!!!!!!2**&!(+**1!!!!!!2**&!(+**1!!!(***#!&***#!!!!!!!!!!-**&!!!'*+!!,**!!!!!!!!!!!!!!!.**.&*20*,!!!!!!!!+*2!!!!!!!!!!!!$***'!!!!!!!!!!!!!!!!!!!!!!!!!!!!!!!!!!!",
"!!!!!!!!!!!!+*****************'!!!!!!!!!!!!!+*+!!!+*'!!!!!#**#!!!!!!!!!!!!!!!!!!!!!!!!!!!!!!!!!!!#-(!!!!!!+%!,*,!!!!,*,!!!!!!!!!!!!!!!!!!2**!!!!!!!!!!!!!!!!!!!!!2**#!!!!#**-!!!!2**#!!!!#**-!!!***!!!!2**#!!!!!!!!!+*********,!,**!!!!!!!!!!!'************00*********0-!!!!!!!!!!!)***.!!!!!!!!!!!!!!!!!!!!!!!!!!!!!!!!!!!",
"!!!!--!!!!!'%.(!!!!)**!!!!!!!!!!!!!!%*************************#!!!!!!!!!!!!!!!!!!!!!!!!!!!!!!!!!!!0*)!!!!'+.!**%!!!!,*,!!!!!!!!!!!!!!!!!)**-!!!!!!!!-.!!!!!!!!!!)**'!!!!!!&*+!!!)**'!!!!!!&*+!!!***!!!!!**0!!!!!!!!!**+!!!!***'!,**!!!!!!!!!!!!((!&**.!!!,*,!!!!)**!!!!!!!!!!!!!!!!)***.!!!!!!!!!!!!!!!!!!!!!!!!!!!!!!!!!!!",
"!!!!'**.!!!$$!!!!!!)**!!!!!!!!!!!!!!#'#!!!!!!!!!!!!!!!!!!!!!!!!!!!!!!!!!!!!!!!!!!!!!!!!!!!!!!!!!!!#**2!!!$$!&**(!!!!$******,!!!!!!!!!!!#***))))))))***)!!!!!!!!!**2!!!!!!!!$$!!!**2!!!!!!!!$$!!!***!!!!!+**-!!!!!!!'**.!!!.**,!!,**!!!!!!!!!!!!!!!$**.!!!,*,!!!!)**!!!!!!!!!!!!!!!!'***!!!!!!!!!!!!!!!!!!!!!!!!!!!!!!!!!!!!",
"!!!!!+**'!($%!!!!!!)**!!!!!!!!!!!!!!!!!!.-!!!!!!!!!!!!','!!!!!!!!!!!!!!!!!!!!!!!!!!!!!!!!!!!!!!!!!!)**$!#,%(**)!!!!!#2*****0(!!!!!!!!!!***)))))))))2**$!!!!!!!!&**%!!!!!!!!!!!!&**%!!!!!!!!!!!!!***!!!!!-**+!!!!!!!0*,!!!!)**-!!,**!!!!!!!!!!!!!!!1**-!!!,*,!!!!)**!!!!!!!!!!!!!!!!.***!!!!!!!!!!!!!!!!!!!!!!!!!!!!!!!!!!!!",
"!!!!!!***(%,#!!!!!!)**!!!!!!!!!!!!!!!!!!)****************-!!!!!!!!!!!!!!!!!!!!!!!!!!!!!!!!!!!!!!!!!!**$!+,#2*+!!!!!!!!!!!!!!!!!!!!!!!!2***!!!!!!!!!)**!!!!!!!!!$**.!!!!!!!!!!!!$**.!!!!!!!!!!!!!***!!!!!#**,!!!!!!.**&!!!!0*1!!!,****'!!!!!!!!!!!#****+!!,*,!!!!)**!#'#!!!!!!!!!!!!#**2!!!!!!!!!!!!!!!!!!!!!!!!!!!!!!!!!!!!",
"!!!!!!%**#00!!!!!!!)**!!!!!!!!!!!!!!!!!!)**!!!!!!!!!!!)*2!!!!!!!!!!!!!!!!!!!!!!!!!!!!!!!!!!!!!!!!!!!)$#!220*&!!!!!!!!'**#!!!!!!!!!!!!2****!!!!!!!!!)**!!!!!!!!!2**(!!!!!!!!!!!!2**(!!!!!!!!!!!!!***!!!!!!***!!!!!!,****%!(**+!!!,**&***%!!!!!!!!!&******#,*,('))2**%***#!!!!!!!!!!!!**,!!!!!!!!!!!!!!!!!!!!!!!!!!!!!!!!!!!!",
"!!!!!!($%-1+!!!!!!!)**!!!!((!!!!!!!!!!!!)**!!!!!!!!!!!)*,!!!!!!!!!!!!!#.!!!!!!!!!!!!!!!!!!!!!!!!!!!!!!!)11+()***********1!!!!!!!!!!#**%)**!!!!!!!!!)**!!!!!!!!!***!!!!!!!!!!!!!***!!!!!!!!!!!!!!***!!!!!!***!!!!!-*2!+**0&**.!!!,**!#****#!!!!!!!0***)**,,*,!%,)2**)))&#!!!!!!!!!!!!**,!!!!!!!!!!!!!!!!!!!!!!!!!!!!!!!!!!!!",
"!!!!!!!!!$*-!!!!!!!)**!!!'**'!!!!!!!!!!!)***************,!!!!!!!!!!!!,***-!!!!!!!!!!!!!!!!!!!!!!!!!!!!!2*(!!!($%!!!!!2**!!!!!!!!!!&**.!)**************!!!!!!!!!***!!!!!!!!!!!!!***!!!!!!!!!!!!!!***!!!!!!***!!!!!2*#!!,**2*2!!!!,**!!!2**$!!!!!!(****.,*$,*,!!!!)**!!!!!!!!!!!!!!!!!,*)!!!!!!!!!!!!!!!!!!!!!!!!!!!!!!!!!!!!",
"!!!!!!!!(*1!!%**************1#!!!!!!!!!!)**!!!!!!!!!!!)*1!!!!!!!!!!!.****,!!!!!!!!!!!!!!!!!!!!!!!!!!!!'*$!!!!!,,!!!!'**)!!!!!!!!(0*%!!!)**!!!!!!!!!)**!!!!!!!!!***!!!!!!!!!!!!!***!!!!!!!!!!!!!!***!!!!!!***!!!!$1.!!!(,2**&!!!!,**!!!!**1!!!!!!%****.(-#,*,!!!!)**!!!!!!!!!!!!!!!!!$*&!!!!!!!!!!!!!!!!!!!!!!!!!!!!!!!!!!!!",
"!!!!!!!!)*+!!!!!!!!)**!!!!!!!!!!!!!!!!!!)**!!!!!!!!!!!)**!!!!!!!!!!!#****+!!!!!!!!!!!!!!!!!!!!!!!!!!!!2*'!!!!!%1'!!!,**!!!!!!!!!.-!!!!!)**!!!!!!!!!)**!!!!!!!!!1**!!!!!!!!!!!!!1**!!!!!!!!!!!!!!***!!!!!!**2!!!#%'!!!!!!,*1!!!!!,**!!!!#$)!!!!!!**)**.!!!,*,!!!!)**!!!!!!!!!!!!!!!!!),.!!!!!!!!!!!!!!!!!!!!!!!!!!!!!!!!!!!!",
"!!!!!!!!**-!!!!!!!!)**!!!!!!!!!!!!!!!!!!)****************!!!!!!!!!!!!-**%!!!!!!!!!!!!!!!!!!!!!!!!!!!!&**!!!!!!(*2!!'**'!!!!!!!!!!!!!!!!)**!!!!!!!!!)**!!!!!!!!!,**.!!!!!!!!!!!!,**.!!!!!!!!!!!!!***!!!!!.**,!!!!!!!!!!!.**'!!!!!,**!!!!!!!!!!!!)*$.**.!!!,*,!!!!)**!!!!!!!!!!!!!!!!!((!!!!!!!!!!!!!!!!!!!!!!!!!!!!!!!!!!!!!",
"!!!!##!+**!!!!!!!!!)**!!!!!!!!!!!!!!!!!!+*2!!!-%.!!!!!)*$!!!!!!!!!!!!!!!!!!!!!!!!!!!!!!!!!!!!!!!!!)****$!!!!!!!,*&!**0!!!!!!!!!!!!!!!!!)**)))))))))2**!!!!!!!!!%**'!!!!!!!!++!!%**'!!!!!!!!++!!!***!!!!!'**)!!!!!!!!!!!1*,!!!!!!,**!!!!!!!!!!!!11!.**.!!!,*,!!!!)**!!+*+!!!!!!!!!!!!!!!!!!!!!!!!!!!!!!!!!!!!!!!!!!!!!!!!!!!",
"!!!!.****$!!!!!!!!!)**!!!!!!!!!!!!!!!!!(.(',&!!1*,!!!!!(#!!!!!!!!!!!!!!!!!!!!!!!!!!!!!!!!!!!!!!!!!!-***'!!!!!!!.**0**#!!!!!!!!!!!!!!!!!)**)))))))))2**!!!!!!!!!-**+!!!!!!!#0+!!-**+!!!!!!!#0+!!!***!!!!!$**(!!!!!!!!!!+*1!!!!!!!,**!!!!!!!!!!!)$#!.**.!!!,*0,***********+!!!!!!!!!!'***#!!!!!!!!!!!!!!!!!!!!!!!!!!!!!!!!!!!",
"!!!!!!&**)!!!!!!!!!)**!!!!!!!!!!!!!!!!!%%!)**%!.**0!!!!#**&!!!!!!!!!!(%$.!!!!!!!!!!!!!!!!!!!!!!!!!!!'**.!!!!!!!!%***)!!!!!!!!!!!!!!!!!!)**!!!!!!!!!)**!!!!!!!!!!2**(!!!!!!$1.!!!2**(!!!!!!$1.!!!***!!!!(**,!!!!!!!!!!&**#!!!!!!!,**!!!!!!!!!!!..!!.**.!!!,*,((!!!!!!!!!!!!!!!!!!!!!****$!!!!!!!!!!!!!!!!!!!!!!!!!!!!!!!!!!!",
"!!!!!!.**)!!!!!!!!!)**!!!!!!!!!!!!!!!!.*,!)**!!!,**.!))!#**0!!!!!!!!(****-!!!!!!!!!!!!!!!!!!!!!!!!!!'**.!!!!!!!!)***.!!!!!!!!!!!!!!!!!!)**!!!!!!!!!)**!!!!!!!!!!.**$!!!!!'1%!!!!.**$!!!!!'1%!!!!***!!!!2**(!!!!!!!!!'**#!!!!!!!!,**!!!!!!!!!!!!!!!.**.!!!,*,!!!!!!!!!!!!!!!!!!!!!!!1***$!!!!!!!!!!!!!!!!!!!!!!!!!!!!!!!!!!!",
"!!!!!!-**)!!!!!!!!!)**!!!!!!!!!!!!!!!!2*+!)**!!!-*1!!)+(!)**0!!!!!!!.****+!!!!!!!!!!!!!!!!!!!!!!!!!!+**.!!!!!!!$*****%!!!!!!!!!!!!!!!!!)**!!!!!!!!!)**!!!!!!!!!!!'***-!#2*+!!!!!!'***-!#2*+!!!!(***#(+***#!!!!!!!!!+*1(!!!!!!!!!,**!!!!!!!!!!!!!!!.**&!!!,*,!!!!!!!!!!((!!!!!!!!!!!#1*,!!!!!!!!!!!!!!!!!!!!!!!!!!!!!!!!!!!!",
"!!!!!!%**)!!!!!!!!!)**!!!!!'*+!!!!!!#***'!)**!!!!!!!!+*'!!***.!!!!!!!****-!!!!!!!!!!!!!!!!!!!!!!!!!!2**.!!!!!.***-!+***+(!!!!!!!!!!!!!!)**!!!!!!!!!)**!!!!!!!!!!!!($*****'!!!!!!!!($*****'!!!!*********'!!!!!!!!!!0*+!!!!!!!!!!!,**!!!!!!!!!!!!!!!.**)!!!,*,!!!!!!!!!#**+!!!!!!!!!!!!!!!!!!!!!!!!!!!!!!!!!!!!!!!!!!!!!!!!!!",
"!!!!!!,**)!-)))))))2**))))$***+!!!!!,**2!!)**.!!!!!!(***#!)**#!!!!!!!(+,.!!!!!!!!!!!!!!!!!!!!!!!!!!!2**.!!!#0**%!!!!-******$#!!!!!!!!!!)**!!!!!.2*****!!!!!!!!!!!!!!!!!!!!!!!!!!!!!!!!!!!!!!!!!!!!!!!!!!!!!!!!!!-**.!!!!!!!!!!!!,**!!!!!!!!!!!!!!!.**)!!(****************'!!!!!!!!!!!!!!!!!!!!!!!!!!!!!!!!!!!!!!!!!!!!!!!!!",
"!!!!!!)**)!&,%))))))))))))))))-!!!!!'*$!!!'************2!!!'-!!!!!!!!!!!!!!!!!!!!!!!!!!!!!!!!!!!!!!!#0,(!&***)!!!!!!!!%****&!!!!!!!!!!!)**!!!!!!!&***,!!!!!!!!!!!!!!!!!!!!!!!!!!!!!!!!!!!!!!!!!!!!!!!!!!!!!!!!!','!!!!!!!!!!!!!!,**!!!!!!!!!!!!!!!.**)!!!'$-!!!!!!!!!!!!!!!!!!!!!!!!!!!!!!!!!!!!!!!!!!!!!!!!!!!!!!!!!!!!!!!",
"!!!!!!!(#!!!!!!!!!!!!!!!!!!!!!!!!!!!!!!!!!!#&))))))))&#!!!!!!!!!!!!!!!!!!!!!!!!!!!!!!!!!!!!!!!!!!!!!!!!%*2'!!!!!!!!!!!!!&)(!!!!!!!!!!!!'+.!!!!!!!!&1%!!!!!!!!!!!!!!!!!!!!!!!!!!!!!!!!!!!!!!!!!!!!!!!!!!!!!!!!!!!!!!!!!!!!!!!!!!!+*'!!!!!!!!!!!!!!!.**.!!!!!!!!!!!!!!!!!!!!!!!!!!!!!!!!!!!!!!!!!!!!!!!!!!!!!!!!!!!!!!!!!!!!!",
"!!!!!!!!!!!!!!!!!!!!!!!!!!!!!!!!!!!!!!!!!!!!!!!!!!!!!!!!!!!!!!!!!!!!!!!!!!!!!!!!!!!!!!!!!!!!!!!!!!!!!!!!!!!!!!!!!!!!!!!!!!!!!!!!!!!!!!!!!!!!!!!!!!!!!!!!!!!!!!!!!!!!!!!!!!!!!!!!!!!!!!!!!!!!!!!!!!!!!!!!!!!!!!!!!!!!!!!!!!!!!!!!!!!!!!!!!!!!!!!!!!!!!!!!!!!!!!!!!!!!!!!!!!!!!!!!!!!!!!!!!!!!!!!!!!!!!!!!!!!!!!!!!!!!!!!!!!!",
"!!!!!!!!!!!!!!!!!!!!!!!!!!!!!!!!!!!!!!!!!!!!!!!!!!!!!!!!!!!!!!!!!!!!!!!!!!!!!!!!!!!!!!!!!!!!!!!!!!!!!!!!!!!!!!!!!!!!!!!!!!!!!!!!!!!!!!!!!!!!!!!!!!!!!!!!!!!!!!!!!!!!!!!!!!!!!!!!!!!!!!!!!!!!!!!!!!!!!!!!!!!!!!!!!!!!!!!!!!!!!!!!!!!!!!!!!!!!!!!!!!!!!!!!!!!!!!!!!!!!!!!!!!!!!!!!!!!!!!!!!!!!!!!!!!!!!!!!!!!!!!!!!!!!!!!!!!!",
"!!!!!!!!!!!!!!!!!!!!!!!!!!!!!!!!!!!!!!!!!!!!!!!!!!!!!!!!!!!!!!!!!!!!!!!!!!!!!!!!!!!!!!!!!!!!!!!!!!!!!!!!!!!!!!!!!!!!!!!!!!!!!!!!!!!!!!!!!!!!!!!!!!!!!!!!!!!!!!!!!!!!!!!!!!!!!!!!!!!!!!!!!!!!!!!!!!!!!!!!!!!!!!!!!!!!!!!!!!!!!!!!!!!!!!!!!!!!!!!!!!!!!!!!!!!!!!!!!!!!!!!!!!!!!!!!!!!!!!!!!!!!!!!!!!!!!!!!!!!!!!!!!!!!!!!!!!!",
"!!!!!!!!!!!!!!!!!!!!!!!!!!!!!!!!!!!!!!!!!!!!!!!!!!!!!!!!!!!!!!!!!!!!!!!!!!!!!!!!!!!!!!!!!!!!!!!!!!!!!!!!!!!!!!!!!!!!!!!!!!!!!!!!!!!!!!!!!!!!!!!!!!!!!!!!!!!!!!!!!!!!!!!!!!!!!!!!!!!!!!!!!!!!!!!!!!!!!!!!!!!!!!!!!!!!!!!!!!!!!!!!!!!!!!!!!!!!!!!!!!!!!!!!!!!!!!!!!!!!!!!!!!!!!!!!!!!!!!!!!!!!!!!!!!!!!!!!!!!!!!!!!!!!!!!!!!!",
"!!!!!!!!!!!!!!!!!!!!!!!!!!!!!!!!!!!!!!!!!!!!!!!!!!!!!!!!!!!!!!!!!!!!!!!!!!!!!!!!!!!!!!!!!!!!!!!!!!!!!!!!!!!!!!!!!!!!!!!!!!!!!!!!!!!!!!!!!!!!!!!!!!!!!!!!!!!!!!!!!!!!!!!!!!!!!!!!!!!!!!!!!!!!!!!!!!!!!!!!!!!!!!!!!!!!!!!!!!!!!!!!!!!!!!!!!!!!!!!!!!!!!!!!!!!!!!!!!!!!!!!!!!!!!!!!!!!!!!!!!!!!!!!!!!!!!!!!!!!!!!!!!!!!!!!!!!!",
"!!!!!!!!!!!!!!!!!!!!!!!!!!!!!!!!!!!!!!!!!!!!!!!!!!!!!!!!!!!!!!!!!!!!!!!!!!!!!!!!!!!!!!!!!!!!!!!!!!!!!!!!!!!!!!!!!!!!!!!!!!!!!!!!!!!!!!!!!!!!!!!!!!!!!!!!!!!!!!!!!!!!!!!!!!!!!!!!!!!!!!!!!!!!!!!!!!!!!!!!!!!!!!!!!!!!!!!!!!!!!!!!!!!!!!!!!!!!!!!!!!!!!!!!!!!!!!!!!!!!!!!!!!!!!!!!!!!!!!!!!!!!!!!!!!!!!!!!!!!!!!!!!!!!!!!!!!!",
"!!!!!!!!!!!!!!!!!!!!!!!!!!!!!!!!!!!!!!!!!!!!!!!!!!!!!!!!!!!!!!!!!!!!!!!!!!!!!!!!!!!!!!!!!!!!!!!!!!!!!!!!!!!!!!!!!!!!!!!!!!!!!!!!!!!!!!!!!!!!!!!!!!!!!!!!!!!!!!!!!!!!!!!!!!!!!!!!!!!!!!!!!!!!!!!!!!!!!!!!!!!!!!!!!!!!!!!!!!!!!!!!!!!!!!!!!!!!!!!!!!!!!!!!!!!!!!!!!!!!!!!!!!!!!!!!!!!!!!!!!!!!!!!!!!!!!!!!!!!!!!!!!!!!!!!!!!!"};