/* XPM */ 
static char * wan_xpm[] = {
"60 32 17 1",
" 	c None",
"!	c #00F0F0",
"#	c #66D4E2",
"$	c #9E91C3",
"%	c #5ADBE6",
"&	c #7AC4DB",
"'	c #A484BC",
"(	c #8AB2D2",
")	c #B449A0",
"*	c #BA007E",
"+	c #91A8CD",
",	c #AF62AC",
"-	c #989DC8",
".	c #4CE2E9",
"0	c #70CCDF",
"1	c #AA75B5",
"2	c #82BBD7",
"!!!!!!!!!!!!!!!!!!!!!!!!!!!!!!!!!!!!!!!!!!!!!!!!!!!!!!!!!!!!",
"!!!!!!!!!!!!!!!!!!!!!!!!!!!!!!!!!!!!!!!!!!!!!!!!!!!!!!!!!!!!",
"!!!!!!!!!!!!!!!!!#$!!!!!!!!!!!!!!!!!!!!!!!!!!!!%&!!!!!!!!!!!",
"!!!!!!!!!!!!!!!!!'(!!!!!!!!!!!!!!!!!!!!!!!!!!!&)*&!!!!!!!!!!",
"!!!!!!!!!!!!!!!!#)!!!!&$((((((((+''(((((((((((''''%!!!!!!!!!",
"!!!!!!!!!!!!!!!!'(!!!!!!!!!!!!!!#**!!!!!!!!!!!!!!!!!!!!!!!!!",
"!!!!!!!!!!!!!!!#)!!!!!!!!!!!!!!!#**!!!!!!!!!!!!!!!!!!!!!!!!!",
"!!!!!!!!!!!!!!!'(!!!!!!!!!!!!!!!#*,!!!!!!!!!!!!!!!!!!!!!!!!!",
"!!!!!!!!!!!!!!%)!!!!!!!!!!!!!!!!(*'!!!!!!!!!!!!!!!!!!!!!!!!!",
"!!!!!!!!!!!!!!--!!!!!!!!!!!!!!!!(*'!!!!!!!!!!!!!!!!!!!!!!!!!",
"!!!!!!!!!!!!!.*.!!!!!!!!!!!!!!!!(*'!!!!!!!!01.!!!!!!!!!!!!!!",
"!!!!!!!!!!!!!--!!!!!!!!!!!!!!!!!'*1((((((((1*)!!!!!!!!!!!!!!",
"!!!!!!!!!!!!.*.!!!!!!!!!!!!!!!!!'*(!!!!!!!!'*2!!!!!!!!!!!!!!",
"!!!!!!!!!!!!--!!!!!!!!!!!!!!!!!!**#!!!!!!!!'*#!!!!!!!!!!!!!!",
"!!!!!!!!!!!.*.!!!!!!!!!!!!!!!!!.**%!!!!!!!!'*#!!!!!!!!!!!!!!",
"!!!!!!!!!!!--!!!!!!!!!!!!!!!!!!0**!!!!!!!!!,*.!!!!!!!!!!!!!!",
"!!!!!!!!!!.*.!!!!!!!!!!!!!!!!!!+*'!!!!!!!!!**!!!!!!!!!!!!!!!",
"!!!!!!!!!!--!!!!!!!!!!!!!!!!!!!1*2!!!!!!!!!**!!!!!!!!!!!!!!!",
"!!!!!!!!!.*.!!!!!!!!!!!!!!!!!!.**.!!!!!!!!.*'!!!!!!!!!!!!!!!",
"!!!!!!!!!--!!!!!!!!!!!!!!!!!!!2*'!!!!!!!!!#*'!!!!!!!!!!!!!!!",
"!!!!!!!!.*.!!!!!!!!!!!!!!!!!!!,*#!!!!!!!!!0*-!!!!!!!!!!!!!!!",
"!!!!!!!!--!!!!!!!!!!!!!!!!!!!2*'!!!!!!!!!!(*(!!!!!!!!!!!!!!!",
"!!!!!!!!)%!!!!!!!!!!!!!!!!!!.)).!!!!!!!!!!-*2!!!!!!!!!!!!!!!",
"!!!!!!!('!!!!!!!!!!!!!!!!!!!1*&!!!!!!!!!!!1*#!!!!!!!!!!!!!!!",
"!!!!!!!)#!!!!!!!!!!!!!!!!!!-*-!!!!!!!!!!!!**%!!!!!!!!!!!!!!!",
"!!!!!!('!!!!!!!!!!!!!!!!!!&*-!!!!!!..!!!!(*)!!!!!!!!!!!!!!!!",
"!!!!!!)#!!!!!!!!!!!!!!!!!&*+!!!!!!!%')'+-**-!!!!!!!!!!!!!!!!",
"!!!!!('!!!!!!!!!!!!!!!!!+)&!!!!!!!!!!#,***)!!!!!!!!!!!!!!!!!",
"!!!!!$#!!!!!!!!!!!!!!!!$'.!!!!!!!!!!!!%**'%!!!!!!!!!!!!!!!!!",
"!!!!!!!!!!!!!!!!!!!!!#10!!!!!!!!!!!!!!!(%!!!!!!!!!!!!!!!!!!!",
"!!!!!!!!!!!!!!!!!!!!!.!!!!!!!!!!!!!!!!!!!!!!!!!!!!!!!!!!!!!!",
"!!!!!!!!!!!!!!!!!!!!!!!!!!!!!!!!!!!!!!!!!!!!!!!!!!!!!!!!!!!!"};